<svg xmlns="http://www.w3.org/2000/svg" viewBox="0 0 800 620" width="800" height="620" role="img" aria-label="AI applications">
  <defs>
    <linearGradient id="aiBg" x1="0" y1="0" x2="1" y2="1">
      <stop offset="0" stop-color="#0a140b"/><stop offset="1" stop-color="#04240f"/>
    </linearGradient>
    <linearGradient id="aiAc" x1="0" y1="1" x2="1" y2="0">
      <stop offset="0" stop-color="#3f9d3a"/><stop offset="1" stop-color="#a6f23c"/>
    </linearGradient>
  </defs>
  <rect width="800" height="620" rx="28" fill="url(#aiBg)"/>
  <g stroke="#ffffff" stroke-opacity="0.05">
    <line x1="90" y1="170" x2="710" y2="170"/><line x1="90" y1="290" x2="710" y2="290"/><line x1="90" y1="410" x2="710" y2="410"/>
  </g>
  <g>
    <rect x="270" y="180" width="260" height="260" rx="34" fill="#0b2c15" stroke="url(#aiAc)" stroke-width="5"/>
    <g fill="none" stroke="url(#aiAc)" stroke-width="5" stroke-linecap="round">
      <circle cx="400" cy="310" r="26"/>
      <path d="M400 284v-40"/><path d="M400 336v40"/><path d="M374 310h-40"/><path d="M426 310h40"/>
      <path d="M382 292 L352 262"/><path d="M418 328 L448 358"/>
      <path d="M418 292 L448 262"/><path d="M382 328 L352 358"/>
    </g>
    <g fill="#a6f23c">
      <circle cx="400" cy="238" r="10"/><circle cx="400" cy="382" r="10"/>
      <circle cx="328" cy="310" r="10"/><circle cx="472" cy="310" r="10"/>
      <circle cx="346" cy="256" r="8"/><circle cx="454" cy="364" r="8"/>
      <circle cx="454" cy="256" r="8"/><circle cx="346" cy="364" r="8"/>
    </g>
    <g stroke="url(#aiAc)" stroke-width="6" stroke-linecap="round">
      <path d="M270 232h-40"/><path d="M270 310h-40"/><path d="M270 388h-40"/>
      <path d="M530 232h40"/><path d="M530 310h40"/><path d="M530 388h40"/>
    </g>
    <g fill="#ffffff" fill-opacity="0.08">
      <rect x="130" y="216" width="90" height="32" rx="10"/><rect x="130" y="294" width="90" height="32" rx="10"/><rect x="130" y="372" width="90" height="32" rx="10"/>
      <rect x="580" y="216" width="90" height="32" rx="10"/><rect x="580" y="294" width="90" height="32" rx="10"/><rect x="580" y="372" width="90" height="32" rx="10"/>
    </g>
  </g>
</svg>
