<svg xmlns="http://www.w3.org/2000/svg" viewBox="0 0 800 620" width="800" height="620" role="img" aria-label="Reporting and analytics">
  <defs>
    <linearGradient id="rptBg" x1="0" y1="0" x2="1" y2="1">
      <stop offset="0" stop-color="#0a140b"/><stop offset="1" stop-color="#04240f"/>
    </linearGradient>
    <linearGradient id="rptAc" x1="0" y1="1" x2="1" y2="0">
      <stop offset="0" stop-color="#3f9d3a"/><stop offset="1" stop-color="#a6f23c"/>
    </linearGradient>
  </defs>
  <rect width="800" height="620" rx="28" fill="url(#rptBg)"/>
  <g stroke="#ffffff" stroke-opacity="0.05">
    <line x1="90" y1="170" x2="710" y2="170"/><line x1="90" y1="290" x2="710" y2="290"/><line x1="90" y1="410" x2="710" y2="410"/>
  </g>
  <g>
    <rect x="110" y="120" width="580" height="380" rx="20" fill="#08210f" stroke="#a6f23c" stroke-opacity="0.25" stroke-width="2"/>
    <path d="M110 180h580" stroke="#a6f23c" stroke-opacity="0.18" stroke-width="2"/>
    <rect x="142" y="142" width="160" height="16" rx="8" fill="#ffffff" fill-opacity="0.14"/>
    <g fill="url(#rptAc)">
      <rect x="150" y="330" width="56" height="120" rx="10"/>
      <rect x="222" y="286" width="56" height="164" rx="10"/>
      <rect x="294" y="358" width="56" height="92" rx="10"/>
      <rect x="366" y="248" width="56" height="202" rx="10"/>
    </g>
    <g stroke="#ffffff" stroke-opacity="0.06">
      <line x1="150" y1="450" x2="660" y2="450"/><line x1="150" y1="370" x2="660" y2="370"/><line x1="150" y1="290" x2="660" y2="290"/>
    </g>
    <path d="M470 400 L520 350 L570 372 L640 282" fill="none" stroke="#a6f23c" stroke-width="6" stroke-linecap="round" stroke-linejoin="round"/>
    <g fill="#a6f23c"><circle cx="520" cy="350" r="8"/><circle cx="640" cy="282" r="10"/></g>
    <g fill="#ffffff" fill-opacity="0.08">
      <rect x="470" y="212" width="180" height="44" rx="12"/>
    </g>
    <rect x="486" y="228" width="90" height="12" rx="6" fill="#a6f23c" fill-opacity="0.6"/>
  </g>
</svg>
