<svg xmlns="http://www.w3.org/2000/svg" viewBox="0 0 800 620" width="800" height="620"><defs>
<linearGradient id="bg" x1="0" y1="0" x2="1" y2="1"><stop offset="0" stop-color="#0a140b"/><stop offset="1" stop-color="#04240f"/></linearGradient>
<linearGradient id="bgB" x1="0" y1="0" x2="1" y2="1"><stop offset="0" stop-color="#04240f"/><stop offset="1" stop-color="#0a140b"/></linearGradient>
<linearGradient id="acc" x1="0" y1="1" x2="1" y2="0"><stop offset="0" stop-color="#3f9d3a"/><stop offset="1" stop-color="#a6f23c"/></linearGradient>
<linearGradient id="accV" x1="0" y1="1" x2="0" y2="0"><stop offset="0" stop-color="#3f9d3a"/><stop offset="1" stop-color="#a6f23c"/></linearGradient>
<linearGradient id="area" x1="0" y1="0" x2="0" y2="1"><stop offset="0" stop-color="#a6f23c" stop-opacity="0.5"/><stop offset="1" stop-color="#a6f23c" stop-opacity="0"/></linearGradient>
<radialGradient id="node" cx="0.5" cy="0.5" r="0.5"><stop offset="0" stop-color="#c9ff6b"/><stop offset="1" stop-color="#3f9d3a"/></radialGradient>
<radialGradient id="ping" cx="0.5" cy="0.5" r="0.5"><stop offset="0" stop-color="#a6f23c"/><stop offset="1" stop-color="#a6f23c" stop-opacity="0"/></radialGradient>
<filter id="glow" x="-40%" y="-40%" width="180%" height="180%"><feGaussianBlur stdDeviation="5" result="b"/><feMerge><feMergeNode in="b"/><feMergeNode in="SourceGraphic"/></feMerge></filter>
</defs><rect width="800" height="620" rx="28" fill="url(#bg)"/><g stroke="url(#acc)" stroke-opacity="0.45" stroke-width="2" fill="none"><path d="M400 320 L624 324"/><path d="M400 320 L497 437"/><path d="M400 320 L251 456"/><path d="M400 320 L143 344"/><path d="M400 320 L288 207"/><path d="M400 320 L498 166"/></g><g stroke="#c9ff6b" stroke-opacity="0.4" stroke-width="2" stroke-dasharray="2 11" fill="none"><path d="M400 320 L624 324"/><path d="M400 320 L251 456"/><path d="M400 320 L288 207"/></g><circle cx="624" cy="324" r="13" fill="url(#node)"/><circle cx="497" cy="437" r="15" fill="url(#node)"/><circle cx="251" cy="456" r="13" fill="url(#node)"/><circle cx="143" cy="344" r="10" fill="url(#node)"/><circle cx="288" cy="207" r="13" fill="url(#node)"/><circle cx="498" cy="166" r="11" fill="url(#node)"/><circle cx="400" cy="320" r="52" fill="#04240f" stroke="#a6f23c" stroke-width="3" filter="url(#glow)"/><g font-family="Sora, sans-serif" fill="#ffffff"><text x="80" y="82" font-size="26" font-weight="700">Tech Strategy</text><text x="82" y="572" font-size="14" fill-opacity="0.5">architecture · roadmap · stack</text></g></svg>