<svg xmlns="http://www.w3.org/2000/svg" viewBox="0 0 800 620" width="800" height="620"><defs>
<linearGradient id="bg" x1="0" y1="0" x2="1" y2="1"><stop offset="0" stop-color="#0a140b"/><stop offset="1" stop-color="#04240f"/></linearGradient>
<linearGradient id="bgB" x1="0" y1="0" x2="1" y2="1"><stop offset="0" stop-color="#04240f"/><stop offset="1" stop-color="#0a140b"/></linearGradient>
<linearGradient id="acc" x1="0" y1="1" x2="1" y2="0"><stop offset="0" stop-color="#3f9d3a"/><stop offset="1" stop-color="#a6f23c"/></linearGradient>
<linearGradient id="accV" x1="0" y1="1" x2="0" y2="0"><stop offset="0" stop-color="#3f9d3a"/><stop offset="1" stop-color="#a6f23c"/></linearGradient>
<linearGradient id="area" x1="0" y1="0" x2="0" y2="1"><stop offset="0" stop-color="#a6f23c" stop-opacity="0.5"/><stop offset="1" stop-color="#a6f23c" stop-opacity="0"/></linearGradient>
<radialGradient id="node" cx="0.5" cy="0.5" r="0.5"><stop offset="0" stop-color="#c9ff6b"/><stop offset="1" stop-color="#3f9d3a"/></radialGradient>
<radialGradient id="ping" cx="0.5" cy="0.5" r="0.5"><stop offset="0" stop-color="#a6f23c"/><stop offset="1" stop-color="#a6f23c" stop-opacity="0"/></radialGradient>
<filter id="glow" x="-40%" y="-40%" width="180%" height="180%"><feGaussianBlur stdDeviation="5" result="b"/><feMerge><feMergeNode in="b"/><feMergeNode in="SourceGraphic"/></feMerge></filter>
</defs><rect width="800" height="620" rx="28" fill="url(#bg)"/><rect x="120" y="150" width="560" height="330" rx="16" fill="#04240f" stroke="#a6f23c" stroke-opacity="0.3"/><rect x="120" y="150" width="560" height="46" rx="16" fill="#0a1f10"/><circle cx="150" cy="173" r="7" fill="#a6f23c"/><circle cx="176" cy="173" r="7" fill="#3f9d3a"/><circle cx="202" cy="173" r="7" fill="#1f6f2f"/><rect x="150" y="230" width="420" height="14" rx="7" fill="#a6f23c" fill-opacity="0.7"/><rect x="150" y="276" width="340" height="14" rx="7" fill="#a6f23c" fill-opacity="0.58"/><rect x="150" y="322" width="380" height="14" rx="7" fill="#a6f23c" fill-opacity="0.45999999999999996"/><rect x="150" y="368" width="250" height="14" rx="7" fill="#a6f23c" fill-opacity="0.33999999999999997"/><rect x="150" y="418" width="150" height="34" rx="17" fill="url(#acc)"/><g font-family="Sora, sans-serif" fill="#ffffff"><text x="80" y="82" font-size="26" font-weight="700">Web Development</text><text x="82" y="572" font-size="14" fill-opacity="0.5">responsive · performant · scalable</text></g></svg>