<svg xmlns="http://www.w3.org/2000/svg" viewBox="0 0 800 620" width="800" height="620"><defs>
<linearGradient id="bg" x1="0" y1="0" x2="1" y2="1"><stop offset="0" stop-color="#0a140b"/><stop offset="1" stop-color="#04240f"/></linearGradient>
<linearGradient id="bgB" x1="0" y1="0" x2="1" y2="1"><stop offset="0" stop-color="#04240f"/><stop offset="1" stop-color="#0a140b"/></linearGradient>
<linearGradient id="acc" x1="0" y1="1" x2="1" y2="0"><stop offset="0" stop-color="#3f9d3a"/><stop offset="1" stop-color="#a6f23c"/></linearGradient>
<linearGradient id="accV" x1="0" y1="1" x2="0" y2="0"><stop offset="0" stop-color="#3f9d3a"/><stop offset="1" stop-color="#a6f23c"/></linearGradient>
<linearGradient id="area" x1="0" y1="0" x2="0" y2="1"><stop offset="0" stop-color="#a6f23c" stop-opacity="0.5"/><stop offset="1" stop-color="#a6f23c" stop-opacity="0"/></linearGradient>
<radialGradient id="node" cx="0.5" cy="0.5" r="0.5"><stop offset="0" stop-color="#c9ff6b"/><stop offset="1" stop-color="#3f9d3a"/></radialGradient>
<radialGradient id="ping" cx="0.5" cy="0.5" r="0.5"><stop offset="0" stop-color="#a6f23c"/><stop offset="1" stop-color="#a6f23c" stop-opacity="0"/></radialGradient>
<filter id="glow" x="-40%" y="-40%" width="180%" height="180%"><feGaussianBlur stdDeviation="5" result="b"/><feMerge><feMergeNode in="b"/><feMergeNode in="SourceGraphic"/></feMerge></filter>
</defs><rect width="800" height="620" rx="28" fill="url(#bgB)"/><path d="M400 170 A150 150 0 0 1 546 287" fill="none" stroke="#a6f23c" stroke-width="46" stroke-linecap="butt"/><path d="M546 287 A150 150 0 0 1 400 470" fill="none" stroke="#3f9d3a" stroke-width="46" stroke-linecap="butt"/><path d="M400 470 A150 150 0 0 1 254 353" fill="none" stroke="#c9ff6b" stroke-width="46" stroke-linecap="butt"/><path d="M254 353 A150 150 0 0 1 400 170" fill="none" stroke="#1f6f2f" stroke-width="46" stroke-linecap="butt"/><circle cx="400" cy="320" r="70" fill="#04240f"/><text x="400" y="330" font-family="Sora" font-size="34" font-weight="700" fill="#a6f23c" text-anchor="middle">238%</text><g font-family="Sora, sans-serif" fill="#ffffff"><text x="80" y="82" font-size="26" font-weight="700">Analytics</text><text x="82" y="572" font-size="14" fill-opacity="0.5">measurement · attribution · insight</text></g></svg>