<svg xmlns="http://www.w3.org/2000/svg" viewBox="0 0 800 620" width="800" height="620"><defs>
<linearGradient id="bg" x1="0" y1="0" x2="1" y2="1"><stop offset="0" stop-color="#0a140b"/><stop offset="1" stop-color="#04240f"/></linearGradient>
<linearGradient id="bgB" x1="0" y1="0" x2="1" y2="1"><stop offset="0" stop-color="#04240f"/><stop offset="1" stop-color="#0a140b"/></linearGradient>
<linearGradient id="acc" x1="0" y1="1" x2="1" y2="0"><stop offset="0" stop-color="#3f9d3a"/><stop offset="1" stop-color="#a6f23c"/></linearGradient>
<linearGradient id="accV" x1="0" y1="1" x2="0" y2="0"><stop offset="0" stop-color="#3f9d3a"/><stop offset="1" stop-color="#a6f23c"/></linearGradient>
<linearGradient id="area" x1="0" y1="0" x2="0" y2="1"><stop offset="0" stop-color="#a6f23c" stop-opacity="0.5"/><stop offset="1" stop-color="#a6f23c" stop-opacity="0"/></linearGradient>
<radialGradient id="node" cx="0.5" cy="0.5" r="0.5"><stop offset="0" stop-color="#c9ff6b"/><stop offset="1" stop-color="#3f9d3a"/></radialGradient>
<radialGradient id="ping" cx="0.5" cy="0.5" r="0.5"><stop offset="0" stop-color="#a6f23c"/><stop offset="1" stop-color="#a6f23c" stop-opacity="0"/></radialGradient>
<filter id="glow" x="-40%" y="-40%" width="180%" height="180%"><feGaussianBlur stdDeviation="5" result="b"/><feMerge><feMergeNode in="b"/><feMergeNode in="SourceGraphic"/></feMerge></filter>
</defs><rect width="800" height="620" rx="28" fill="url(#bgB)"/><g fill="none" stroke="#a6f23c" stroke-opacity="0.10"><ellipse cx="400" cy="330" rx="300" ry="120"/><ellipse cx="400" cy="330" rx="220" ry="88"/><ellipse cx="400" cy="330" rx="140" ry="56"/><ellipse cx="400" cy="330" rx="70" ry="28"/><line x1="100" y1="330" x2="700" y2="330"/><line x1="400" y1="200" x2="400" y2="470"/></g><circle cx="313" cy="266" r="43" fill="url(#ping)"/><path d="M313 266 c0 -18 -14 -26 -14 -40 a14 14 0 1 1 28 0 c0 14 -14 22 -14 40 Z" fill="#a6f23c"/><circle cx="313" cy="229" r="5" fill="#04120a"/><circle cx="415" cy="374" r="38" fill="url(#ping)"/><path d="M415 374 c0 -18 -14 -26 -14 -40 a14 14 0 1 1 28 0 c0 14 -14 22 -14 40 Z" fill="#a6f23c"/><circle cx="415" cy="337" r="5" fill="#04120a"/><circle cx="442" cy="258" r="35" fill="url(#ping)"/><path d="M442 258 c0 -18 -14 -26 -14 -40 a14 14 0 1 1 28 0 c0 14 -14 22 -14 40 Z" fill="#a6f23c"/><circle cx="442" cy="221" r="5" fill="#04120a"/><g font-family="Sora, sans-serif" fill="#ffffff"><text x="80" y="82" font-size="26" font-weight="700">Positioning</text><text x="82" y="572" font-size="14" fill-opacity="0.5">differentiation · category · claim</text></g></svg>