<svg xmlns="http://www.w3.org/2000/svg" viewBox="0 0 800 620" width="800" height="620"><defs>
<linearGradient id="bg" x1="0" y1="0" x2="1" y2="1"><stop offset="0" stop-color="#0a140b"/><stop offset="1" stop-color="#04240f"/></linearGradient>
<linearGradient id="bgB" x1="0" y1="0" x2="1" y2="1"><stop offset="0" stop-color="#04240f"/><stop offset="1" stop-color="#0a140b"/></linearGradient>
<linearGradient id="acc" x1="0" y1="1" x2="1" y2="0"><stop offset="0" stop-color="#3f9d3a"/><stop offset="1" stop-color="#a6f23c"/></linearGradient>
<linearGradient id="accV" x1="0" y1="1" x2="0" y2="0"><stop offset="0" stop-color="#3f9d3a"/><stop offset="1" stop-color="#a6f23c"/></linearGradient>
<linearGradient id="area" x1="0" y1="0" x2="0" y2="1"><stop offset="0" stop-color="#a6f23c" stop-opacity="0.5"/><stop offset="1" stop-color="#a6f23c" stop-opacity="0"/></linearGradient>
<radialGradient id="node" cx="0.5" cy="0.5" r="0.5"><stop offset="0" stop-color="#c9ff6b"/><stop offset="1" stop-color="#3f9d3a"/></radialGradient>
<radialGradient id="ping" cx="0.5" cy="0.5" r="0.5"><stop offset="0" stop-color="#a6f23c"/><stop offset="1" stop-color="#a6f23c" stop-opacity="0"/></radialGradient>
<filter id="glow" x="-40%" y="-40%" width="180%" height="180%"><feGaussianBlur stdDeviation="5" result="b"/><feMerge><feMergeNode in="b"/><feMergeNode in="SourceGraphic"/></feMerge></filter>
</defs><rect width="800" height="620" rx="28" fill="url(#bg)"/><g fill="none" stroke="#a6f23c" stroke-opacity="0.25"><ellipse cx="400" cy="320" rx="200" ry="110" transform="rotate(0 400 320)"/><ellipse cx="400" cy="320" rx="180" ry="130" transform="rotate(60 400 320)"/><ellipse cx="400" cy="320" rx="160" ry="150" transform="rotate(120 400 320)"/></g><circle cx="400" cy="320" r="40" fill="url(#node)" filter="url(#glow)"/><circle cx="471" cy="219" r="12" fill="#a6f23c"/><circle cx="494" cy="414" r="12" fill="#a6f23c"/><circle cx="523" cy="240" r="12" fill="#a6f23c"/><circle cx="225" cy="293" r="12" fill="#a6f23c"/><g font-family="Sora, sans-serif" fill="#ffffff"><text x="80" y="82" font-size="26" font-weight="700">Community Mgmt</text><text x="82" y="572" font-size="14" fill-opacity="0.5">engagement · moderation · care</text></g></svg>