<svg xmlns="http://www.w3.org/2000/svg" viewBox="0 0 800 620" width="800" height="620"><defs>
<linearGradient id="bg" x1="0" y1="0" x2="1" y2="1"><stop offset="0" stop-color="#0a140b"/><stop offset="1" stop-color="#04240f"/></linearGradient>
<linearGradient id="bgB" x1="0" y1="0" x2="1" y2="1"><stop offset="0" stop-color="#04240f"/><stop offset="1" stop-color="#0a140b"/></linearGradient>
<linearGradient id="acc" x1="0" y1="1" x2="1" y2="0"><stop offset="0" stop-color="#3f9d3a"/><stop offset="1" stop-color="#a6f23c"/></linearGradient>
<linearGradient id="accV" x1="0" y1="1" x2="0" y2="0"><stop offset="0" stop-color="#3f9d3a"/><stop offset="1" stop-color="#a6f23c"/></linearGradient>
<linearGradient id="area" x1="0" y1="0" x2="0" y2="1"><stop offset="0" stop-color="#a6f23c" stop-opacity="0.5"/><stop offset="1" stop-color="#a6f23c" stop-opacity="0"/></linearGradient>
<radialGradient id="node" cx="0.5" cy="0.5" r="0.5"><stop offset="0" stop-color="#c9ff6b"/><stop offset="1" stop-color="#3f9d3a"/></radialGradient>
<radialGradient id="ping" cx="0.5" cy="0.5" r="0.5"><stop offset="0" stop-color="#a6f23c"/><stop offset="1" stop-color="#a6f23c" stop-opacity="0"/></radialGradient>
<filter id="glow" x="-40%" y="-40%" width="180%" height="180%"><feGaussianBlur stdDeviation="5" result="b"/><feMerge><feMergeNode in="b"/><feMergeNode in="SourceGraphic"/></feMerge></filter>
</defs><rect width="800" height="620" rx="28" fill="url(#bgB)"/><g stroke="#ffffff" stroke-opacity="0.05"><line x1="80" y1="180" x2="720" y2="180"/><line x1="80" y1="270" x2="720" y2="270"/><line x1="80" y1="360" x2="720" y2="360"/><line x1="80" y1="450" x2="720" y2="450"/></g><rect x="120" y="377" width="70" height="123" rx="10" fill="url(#accV)"/><rect x="220" y="198" width="70" height="302" rx="10" fill="url(#accV)"/><rect x="320" y="270" width="70" height="230" rx="10" fill="url(#accV)"/><rect x="420" y="203" width="70" height="297" rx="10" fill="url(#accV)"/><rect x="520" y="259" width="70" height="241" rx="10" fill="url(#accV)"/><rect x="620" y="363" width="70" height="137" rx="10" fill="url(#accV)"/><g font-family="Sora, sans-serif" fill="#ffffff"><text x="80" y="82" font-size="26" font-weight="700">Paid Social</text><text x="82" y="572" font-size="14" fill-opacity="0.5">targeting · creative · ROAS</text></g><g transform="translate(560,64)"><rect width="150" height="46" rx="23" fill="#a6f23c" fill-opacity="0.12" stroke="#a6f23c" stroke-opacity="0.4"/><text x="75" y="30" font-family="Sora" font-size="18" font-weight="700" fill="#a6f23c" text-anchor="middle">3.9x ROAS</text></g></svg>