<svg xmlns="http://www.w3.org/2000/svg" viewBox="0 0 800 620" width="800" height="620" role="img" aria-label="Tracking governance">
  <defs>
    <linearGradient id="trkBg" x1="0" y1="0" x2="1" y2="1">
      <stop offset="0" stop-color="#0a140b"/><stop offset="1" stop-color="#04240f"/>
    </linearGradient>
    <linearGradient id="trkAc" x1="0" y1="1" x2="1" y2="0">
      <stop offset="0" stop-color="#3f9d3a"/><stop offset="1" stop-color="#a6f23c"/>
    </linearGradient>
  </defs>
  <rect width="800" height="620" rx="28" fill="url(#trkBg)"/>
  <g stroke="#ffffff" stroke-opacity="0.05">
    <line x1="90" y1="170" x2="710" y2="170"/><line x1="90" y1="290" x2="710" y2="290"/><line x1="90" y1="410" x2="710" y2="410"/>
  </g>
  <g>
    <rect x="120" y="150" width="560" height="90" rx="16" fill="#0b2c15" stroke="url(#trkAc)" stroke-width="3"/>
    <rect x="152" y="184" width="180" height="16" rx="8" fill="#ffffff" fill-opacity="0.16"/>
    <rect x="152" y="208" width="120" height="12" rx="6" fill="#ffffff" fill-opacity="0.09"/>
    <rect x="560" y="178" width="88" height="34" rx="17" fill="url(#trkAc)"/>
    <g fill="none" stroke="url(#trkAc)" stroke-width="5" stroke-linecap="round">
      <path d="M240 240 V300 H200 V340"/><path d="M400 240 V340"/><path d="M560 240 V300 H600 V340"/>
    </g>
    <g fill="#08210f" stroke="#a6f23c" stroke-opacity="0.55" stroke-width="4">
      <rect x="130" y="340" width="140" height="76" rx="14"/>
      <rect x="330" y="340" width="140" height="76" rx="14"/>
      <rect x="530" y="340" width="140" height="76" rx="14"/>
    </g>
    <path d="M166 380 L186 400 L234 352" fill="none" stroke="url(#trkAc)" stroke-width="8" stroke-linecap="round" stroke-linejoin="round"/>
    <path d="M366 380 L386 400 L434 352" fill="none" stroke="url(#trkAc)" stroke-width="8" stroke-linecap="round" stroke-linejoin="round"/>
    <path d="M566 362 L634 396 M634 362 L566 396" stroke="#a6f23c" stroke-width="8" stroke-linecap="round"/>
    <g fill="#ffffff" fill-opacity="0.10"><rect x="300" y="466" width="200" height="16" rx="8"/></g>
  </g>
</svg>
