<svg xmlns="http://www.w3.org/2000/svg" viewBox="0 0 800 620" width="800" height="620"><defs>
<linearGradient id="bg" x1="0" y1="0" x2="1" y2="1"><stop offset="0" stop-color="#0a140b"/><stop offset="1" stop-color="#04240f"/></linearGradient>
<linearGradient id="bgB" x1="0" y1="0" x2="1" y2="1"><stop offset="0" stop-color="#04240f"/><stop offset="1" stop-color="#0a140b"/></linearGradient>
<linearGradient id="acc" x1="0" y1="1" x2="1" y2="0"><stop offset="0" stop-color="#3f9d3a"/><stop offset="1" stop-color="#a6f23c"/></linearGradient>
<linearGradient id="accV" x1="0" y1="1" x2="0" y2="0"><stop offset="0" stop-color="#3f9d3a"/><stop offset="1" stop-color="#a6f23c"/></linearGradient>
<linearGradient id="area" x1="0" y1="0" x2="0" y2="1"><stop offset="0" stop-color="#a6f23c" stop-opacity="0.5"/><stop offset="1" stop-color="#a6f23c" stop-opacity="0"/></linearGradient>
<radialGradient id="node" cx="0.5" cy="0.5" r="0.5"><stop offset="0" stop-color="#c9ff6b"/><stop offset="1" stop-color="#3f9d3a"/></radialGradient>
<radialGradient id="ping" cx="0.5" cy="0.5" r="0.5"><stop offset="0" stop-color="#a6f23c"/><stop offset="1" stop-color="#a6f23c" stop-opacity="0"/></radialGradient>
<filter id="glow" x="-40%" y="-40%" width="180%" height="180%"><feGaussianBlur stdDeviation="5" result="b"/><feMerge><feMergeNode in="b"/><feMergeNode in="SourceGraphic"/></feMerge></filter>
</defs><rect width="800" height="620" rx="28" fill="url(#bg)"/><path d="M400 140 L560 200 V330 C560 410 490 460 400 490 C310 460 240 410 240 330 V200 Z" fill="#04240f" stroke="url(#acc)" stroke-width="4" filter="url(#glow)"/><path d="M350 320 L385 360 L460 275" fill="none" stroke="#a6f23c" stroke-width="10" stroke-linecap="round" stroke-linejoin="round"/><g stroke="#a6f23c" stroke-opacity="0.15" fill="none"><path d="M400 120 V510 M230 315 H570"/></g><g font-family="Sora, sans-serif" fill="#ffffff"><text x="80" y="82" font-size="26" font-weight="700">Ad Fraud Detection</text><text x="82" y="572" font-size="14" fill-opacity="0.5">bots · IVT · pre-bid filtering</text></g><g transform="translate(560,64)"><rect width="150" height="46" rx="23" fill="#a6f23c" fill-opacity="0.12" stroke="#a6f23c" stroke-opacity="0.4"/><text x="75" y="30" font-family="Sora" font-size="18" font-weight="700" fill="#a6f23c" text-anchor="middle">−92% waste</text></g></svg>