<?xml version="1.0" encoding="UTF-8"?>
<svg id="Layer_1" data-name="Layer 1" xmlns="http://www.w3.org/2000/svg" viewBox="0 0 400 400">
  <defs>
    <style>
      .cls-1 {
        fill: #fff;
        fill-rule: evenodd;
      }
    </style>
  </defs>
  <path class="cls-1" d="M332.93,288.54c-19.06,18.09-47.84,42.84-71.42,58.14-17.47,11.32-36,22-53.18,23.39-14.26,1.16-29.75-4.41-44.62-6.55-19.34-2.79-39.11-3.03-60.84-2.84l-.02-55.05c5.32-1.25,10.68-2.56,16.04-4,6.75-1.83,12.6-4.77,18.24-7.61,10.1-5.08,18.86-9.47,30.21-6.03l46.35,13.97c4.45,1.35,7.03,6.03,5.64,10.57-1.44,4.86-6.65,6.48-11.01,5.56-9.52-2-21.63-5.21-30.55-6.07-8.72-.84-18.48.84-29.92,5.13-2.92,1.09-4.46,4.38-3.35,7.32,1.11,2.94,4.41,4.43,7.33,3.33,9.81-3.66,17.95-5.13,24.89-4.46,8.02.77,20.29,3.98,29.25,5.88,9.06,1.9,18.26-1.76,22.65-9.63,5.8-.58,11.35-1.74,16.62-3.52,21.03-6.98,54.6-26.29,78.57-39.8,7.49-4.26,15.4,6.39,9.13,12.27h0ZM91.43,374.24c0,1.04-.85,1.93-1.91,1.93h-22.79c-1.06,0-1.91-.87-1.91-1.93v-76.08c0-1.04.85-1.93,1.91-1.93h22.79c1.06,0,1.91.89,1.91,1.93v76.08ZM204.47,227.33h-23.8c-2.63,16.99-7.95,33.23-15.85,48.45,1.86.27,3.78.7,5.8,1.32l46.3,13.97c7.62,2.29,13.11,8.92,14.04,16.74,3.21-.48,6.38-1.21,9.39-2.15-19.06-22.36-31.3-49.2-35.87-78.32h0ZM131.8,246.87l-7.18-34.99c-1.11-5.47.15-10.43,3.69-14.72l10.45-12.6c1.73,12.09,4.26,24.26,7.66,36.4l-14.62,25.92ZM192.61,26.37c-43.24,46.52-56.21,115.05-35.76,189.59h71.48c20.45-74.52,7.52-143.07-35.71-189.59h0ZM256.86,197.12c3.54,4.31,4.79,9.25,3.69,14.72l-7.18,34.99-14.6-25.93c3.4-12.14,5.98-24.31,7.71-36.4l10.38,12.62ZM342.32,271.44l-.58-.74c-5.74-6.98-15.66-8.82-23.51-4.39-21.92,12.41-48.02,27.11-66.55,35.06-18.82-20.94-31.03-46.35-35.66-74.04h13.32l21.59,38.35c2.55,4.55,9.47,3.5,10.53-1.64l10.21-49.9c1.81-8.87-.24-17.27-6.03-24.24l-17.42-21.1c1.54-19.08.85-37.75-2.02-55.46-6.33-39.2-23.03-72.57-49.56-99.17-2.24-2.22-5.85-2.22-8.03,0-26.57,26.6-43.24,59.95-49.59,99.17-2.87,17.71-3.5,36.38-2.02,55.46l-17.42,21.1c-5.8,6.99-7.85,15.37-6.03,24.24l10.21,49.9c1.06,5.15,7.98,6.19,10.53,1.64l21.59-38.35h13.35c-2.92,17.22-8.77,33.58-17.47,48.79-13.11,2.62-23.44,11.13-35.87,14.53-4.5,1.23-9.1,2.36-13.64,3.45-1.73-5.33-6.75-9.23-12.68-9.23h-22.79c-7.33,0-13.32,5.97-13.32,13.28v76.06c0,7.33,5.98,13.28,13.32,13.28h22.79c7.33,0,13.32-5.97,13.32-13.28v-2.17c21.25-.19,40.65.03,59.27,2.72,15.61,2.24,30.65,7.97,47.12,6.62,19.73-1.61,39.75-13.04,58.45-25.18,30.5-19.78,63.68-50.48,73.12-59.43,7.01-6.68,7.73-17.83,1.5-25.34h0ZM192.61,127.3c9.28,0,16.86,7.56,16.86,16.86s-7.56,16.84-16.86,16.84-16.86-7.56-16.86-16.84,7.57-16.86,16.86-16.86ZM192.61,172.35c-15.56,0-28.24-12.65-28.24-28.21s12.68-28.21,28.24-28.21,28.21,12.65,28.21,28.21c-.02,15.56-12.65,28.21-28.21,28.21Z"/>
</svg>