<?xml version="1.0" encoding="UTF-8"?>
<svg id="Layer_1" data-name="Layer 1" xmlns="http://www.w3.org/2000/svg" viewBox="0 0 400 400">
  <defs>
    <style>
      .cls-1 {
        fill-rule: evenodd;
      }

      .cls-1, .cls-2 {
        fill: #fff;
      }
    </style>
  </defs>
  <path class="cls-1" d="M181.84,279.41c-18.53-52.89-41.02-102.88-78.02-102.24,35.25-45.23,64.92-33.15,90.81,17.73C240.32,113.28,305.39,58.33,377.56,13.14c3.99-2.49,8.27,2.86,4.96,6.21-73.37,74.01-134.8,160.14-177.58,260.82-4.42,10.4-19.35,9.91-23.1-.75h0Z"/>
  <path class="cls-2" d="M322.93,109.64c22.52,28.59,34.75,63.67,34.75,100.63,0,43.54-16.95,84.47-47.74,115.26-30.79,30.79-71.72,47.74-115.26,47.74s-84.47-16.95-115.26-47.74c-30.79-30.79-47.74-71.72-47.74-115.26s16.95-84.47,47.74-115.26c30.79-30.79,71.72-47.74,115.26-47.74,29.3,0,57.42,7.69,82.07,22.1,3.85-3.47,7.79-6.92,11.82-10.34-27.26-16.96-59.43-26.76-93.89-26.76-98.31,0-178,79.69-178,178s79.69,178,178,178,178-79.69,178-178c0-42.75-15.08-81.97-40.19-112.66-3.23,3.99-6.42,8-9.56,12.03Z"/>
</svg>