<?xml version="1.0" encoding="UTF-8"?>
<svg id="Layer_1" data-name="Layer 1" xmlns="http://www.w3.org/2000/svg" viewBox="0 0 400 400">
  <defs>
    <style>
      .cls-1 {
        fill: #fff;
      }
    </style>
  </defs>
  <path class="cls-1" d="M341.52,12.5c-2.12.05-4.37,1.31-5.47,2.21l-37.49,33.32c-1.74,1.57-2.76,3.91-2.73,6.25v38.14l-11.98,11.98c-28.81-26.01-67-41.78-108.82-41.78C85.43,62.61,12.6,135.44,12.6,225.06s72.82,162.44,162.44,162.44,162.44-72.82,162.44-162.44c0-41.84-15.87-80-41.91-108.82l11.98-11.98h38.27c2.36-.01,4.7-1.08,6.25-2.86l33.32-37.49c2.08-2.39,2.61-6.02,1.3-8.9-1.31-2.89-4.38-4.88-7.55-4.89h-29.16v-29.16c.07-4.45-4.01-8.53-8.46-8.46h0ZM333.32,39.44v19c0,4.36,3.97,8.33,8.33,8.33h18.87l-18.48,20.83h-29.55v-29.68l20.83-18.48ZM175.05,79.27c37.32,0,71.34,13.84,97.1,36.84l-17.83,17.83c-21.23-18.49-48.97-29.68-79.27-29.68-66.61,0-120.79,54.18-120.79,120.79s54.18,120.79,120.79,120.79,120.79-54.18,120.79-120.79c0-30.33-11.28-58.04-29.81-79.27l17.83-17.83c22.97,25.76,36.97,59.81,36.97,97.1,0,80.61-65.17,145.78-145.78,145.78S29.27,305.67,29.27,225.06,94.44,79.28,175.05,79.28h0ZM175.05,120.93c25.81,0,49.38,9.25,67.56,24.73l-20.83,20.83c-12.83-10.26-29.08-16.4-46.73-16.4-41.31,0-74.97,33.67-74.97,74.97s33.67,74.97,74.97,74.97,74.97-33.67,74.97-74.97c0-17.67-6.25-33.89-16.53-46.73l20.83-20.83c15.51,18.18,24.86,41.73,24.86,67.56,0,57.61-46.52,104.13-104.13,104.13s-104.13-46.52-104.13-104.13,46.52-104.13,104.13-104.13h0ZM175.05,166.74c13.12,0,25.16,4.32,34.88,11.59l-24.21,24.21c-3.26-1.57-6.84-2.47-10.67-2.47-13.7,0-24.99,11.29-24.99,24.99s11.29,24.99,24.99,24.99,24.99-11.29,24.99-24.99c0-3.85-.88-7.53-2.47-10.8l24.21-24.21c7.3,9.74,11.59,21.85,11.59,35.01,0,32.3-26.01,58.31-58.31,58.31s-58.31-26.01-58.31-58.31,26.01-58.31,58.31-58.31h0ZM179.73,231.82c-.18.12-.33.28-.52.39.18-.12.35-.25.52-.39Z"/>
</svg>