<?xml version="1.0" encoding="UTF-8"?>
<svg id="Layer_1" data-name="Layer 1" xmlns="http://www.w3.org/2000/svg" viewBox="0 0 400 400">
  <defs>
    <style>
      .cls-1 {
        fill: #fff;
      }
    </style>
  </defs>
  <path class="cls-1" d="M184.58,23.81c20.14,17.09,42.74,30.75,67.22,40.62,24.36,9.82,49.96,15.63,76.15,17.3v121.54c0,52.19-28.4,100.24-74.12,125.39l-69.25,38.09-69.25-38.09c-45.72-25.15-74.12-73.19-74.12-125.39v-121.54c26.2-1.67,51.79-7.48,76.14-17.29,24.51-9.88,47.12-23.54,67.23-40.63M184.58,6.59l-6.02,5.25c-19.65,17.16-41.88,30.8-66.07,40.54-24.13,9.72-49.55,15.29-75.58,16.57l-8.7.43v133.89c0,56.93,30.98,109.34,80.86,136.78l75.51,41.54,75.51-41.54c49.87-27.43,80.85-79.84,80.85-136.78V69.38l-8.7-.43c-26.02-1.27-51.45-6.85-75.59-16.58-24.16-9.74-46.39-23.38-66.06-40.54l-6.02-5.25h0ZM183.5,118.12c-17.97.58-32.64,15.66-32.71,33.69-.03,11.95,6.14,22.85,16.28,28.99l-8.84,73.1c-.49,2.43.12,4.88,1.69,6.79,1.57,1.87,3.87,2.98,6.33,2.98h36.67c2.46,0,4.76-1.11,6.33-2.98,1.57-1.9,2.18-4.36,1.69-6.79l-8.84-73.1c10.1-6.11,16.28-16.98,16.28-28.9,0-9.21-3.65-17.84-10.29-24.26-6.6-6.42-15.29-9.8-24.57-9.52h0Z"/>
</svg>