<?xml version="1.0" encoding="UTF-8"?>
<svg id="Layer_1" data-name="Layer 1" xmlns="http://www.w3.org/2000/svg" viewBox="0 0 400 400">
  <defs>
    <style>
      .cls-1 {
        fill: #fff;
        fill-rule: evenodd;
      }
    </style>
  </defs>
  <path class="cls-1" d="M132.84,319.48c9.33,5.22,19.81,9.6,30.17,12.47,2.35.65,3.99,2.49,4.52,4.73l9.89,38.04,44.79.03,10.01-38.18c.59-2.29,2.35-3.96,4.46-4.55,10.74-2.99,20.75-7.1,30.52-12.62,2.2-1.23,4.78-1.03,6.72.29l33.63,19.75,31.7-31.64-19.93-34.07c-1.2-2.03-1.12-4.46-.06-6.37,5.37-9.48,9.74-19.99,12.65-30.46.65-2.35,2.49-3.99,4.73-4.52l38.04-9.89.03-44.79-38.18-10.01c-2.29-.59-3.96-2.35-4.55-4.46-2.99-10.74-7.1-20.75-12.62-30.52-1.23-2.2-1.03-4.78.29-6.72l19.75-33.63-31.64-31.7-34.07,19.93c-2.03,1.2-4.46,1.12-6.37.06-9.48-5.37-19.99-9.74-30.46-12.65-2.35-.65-3.99-2.49-4.52-4.73l-9.89-38.04-44.79-.03-10.01,38.18c-.59,2.29-2.35,3.96-4.46,4.55-10.77,2.99-20.78,7.13-30.55,12.62-2.2,1.23-4.78,1.03-6.72-.29l-33.69-19.72-31.7,31.67,19.93,34.05c1.23,2.11,1.12,4.67-.09,6.6-4.9,8.25-9.89,20.9-12.47,30.23-.65,2.35-2.49,3.99-4.73,4.52l-38.04,9.92-.03,44.79,38.18,9.98c2.29.59,3.96,2.35,4.55,4.46,2.99,10.74,7.13,20.75,12.62,30.52,1.23,2.2,1.03,4.78-.29,6.72l-19.75,33.66,31.67,31.7,34.05-19.93c2.23-1.29,4.78-1.17,6.72.06h0ZM193.53,248.66c-2.17,8.13-14.5,4.81-12.33-3.29l25.21-94.07c2.17-8.13,14.5-4.81,12.33,3.29l-25.21,94.07ZM160.34,167.15c7.25-4.17,13.62,6.84,6.34,11.04l-37.74,21.78,37.74,21.78c7.28,4.2.91,15.2-6.34,11.04l-47.22-27.27c-4.31-2.47-4.31-8.6-.06-11.06l47.28-27.29ZM233.27,178.18c-3.05-1.76-4.11-5.64-2.35-8.69,1.76-3.05,5.64-4.11,8.69-2.35l47.28,27.3c4.26,2.47,4.26,8.6-.06,11.06l-47.22,27.27c-7.25,4.17-13.62-6.84-6.34-11.04l37.74-21.78-37.74-21.78ZM142.52,338.31c-4.34-1.82-8.69-3.84-12.97-6.13l-34.96,20.46c-2.47,1.61-5.81,1.32-7.98-.85l-38.59-38.65c-2,2-2.47,5.17-.97,7.72l20.63-35.16c-4.49-8.42-8.19-17.43-10.98-26.59l-39.45-10.33c-2.73-.7-4.75-3.2-4.75-6.16l.03-54.38c-.12-2.93,1.82-5.64,4.75-6.4l39.48-10.27c2.82-9.27,6.43-17.99,11.01-26.56l-20.46-34.96c-1.61-2.47-1.32-5.81.85-7.98l38.65-38.59c2-2,5.17-2.47,7.72-.97l35.19,20.63c8.45-4.49,17.46-8.19,26.65-10.98l10.33-39.45c.7-2.73,3.2-4.75,6.16-4.75l54.38.06c2.93-.12,5.64,1.82,6.4,4.75l10.27,39.48c9.25,2.82,18.05,6.49,26.56,11.04l34.96-20.43c2.47-1.61,5.81-1.32,7.98.85l38.59,38.65c2,2,2.47,5.17.97,7.72l-20.66,35.16c4.46,8.42,8.19,17.43,10.98,26.59l39.45,10.33c2.73.7,4.75,3.2,4.75,6.16l-.06,54.38c.12,2.93-1.82,5.64-4.75,6.4l-39.48,10.27c-2.82,9.25-6.49,18.05-11.04,26.56l20.43,34.96c1.61,2.47,1.32,5.81-.85,7.98l-38.65,38.59c-2,2-5.17,2.47-7.72.97l-35.16-20.66c-8.45,4.46-17.43,8.19-26.59,10.98l-10.33,39.45c-.7,2.73-3.2,4.75-6.16,4.75l-54.38-.06c-2.93.12-5.64-1.82-6.4-4.75l-10.27-39.48c-4.64-1.47-9.16-3.08-13.56-4.9h0Z"/>
</svg>