<?xml version="1.0" encoding="UTF-8"?>
<svg id="Layer_1" data-name="Layer 1" xmlns="http://www.w3.org/2000/svg" viewBox="0 0 100 100">
  <defs>
    <style>
      .cls-1 {
        fill: #fff;
      }
    </style>
  </defs>
  <path class="cls-1" d="M94.85,50c0,24.77-20.08,44.85-44.85,44.85S5.15,74.77,5.15,50,25.23,5.15,50,5.15s44.85,20.08,44.85,44.85ZM78.26,66.48c0,.33-.05.64-.14.94l-17.34-15.04,17.48-16.76v30.86ZM43.19,54.44l3.7,3.27c2.45,2.17,6.15,2.1,8.51-.17l3.11-2.98,17.27,14.99c-.21.05-.44.07-.66.07H24.88c-.19,0-.38-.02-.56-.05l18.87-15.13ZM75.12,30.38c1.09,0,2.05.56,2.62,1.4l-24.51,23.5c-1.18,1.13-3.03,1.17-4.26.09l-26.67-23.63c.57-.82,1.51-1.36,2.58-1.36h50.23ZM21.74,35.44l19.06,16.89-18.9,15.15c-.1-.31-.16-.65-.16-1v-31.05ZM81.4,33.52c0-3.47-2.81-6.28-6.28-6.28H24.88c-3.47,0-6.28,2.81-6.28,6.28v32.97c0,3.47,2.81,6.28,6.28,6.28h50.23c3.47,0,6.28-2.81,6.28-6.28v-32.97Z"/>
</svg>