<?xml version="1.0" encoding="UTF-8"?>
<svg id="Layer_1" data-name="Layer 1" xmlns="http://www.w3.org/2000/svg" viewBox="0 0 100 100">
  <defs>
    <style>
      .cls-1 {
        fill: #fff;
      }
    </style>
  </defs>
  <path class="cls-1" d="M50,5.15C25.23,5.15,5.15,25.23,5.15,50s20.08,44.85,44.85,44.85,44.85-20.08,44.85-44.85S74.77,5.15,50,5.15ZM36.46,73.94c0,.52-.15.73-.69.72-3-.02-6-.02-9,0-.59,0-.7-.23-.7-.77.02-5.25.01-10.5.01-15.75,0-5.23,0-10.46-.01-15.69,0-.6.14-.81.78-.8,2.96.03,5.92.03,8.87,0,.55,0,.75.14.75.72-.02,10.52-.01,21.04,0,31.57ZM31.26,37.26c-3.31,0-5.95-2.63-5.95-5.94,0-3.35,2.63-6,5.97-5.99,3.31,0,5.97,2.68,5.96,6.01,0,3.29-2.66,5.92-5.98,5.92ZM74.7,73.84c0,.67-.22.83-.85.82-2.89-.03-5.79-.03-8.68,0-.65,0-.85-.2-.85-.85.02-5.4.04-10.8,0-16.21-.01-1.36-.13-2.74-.43-4.07-.54-2.38-2.07-3.53-4.52-3.56-.74,0-1.51.02-2.22.2-2.38.59-3.4,2.38-3.8,4.61-.19,1.07-.26,2.17-.27,3.25-.03,5.25-.01,10.5-.01,15.76,0,.84,0,.84-.86.84-2.89,0-5.79-.01-8.68.01-.64,0-.84-.18-.84-.84.02-10.44.01-20.88.01-31.32,0-.84,0-.84.86-.84,2.79,0,5.58.01,8.36-.01.59,0,.79.16.77.76-.04,1.18-.01,2.36-.01,3.53,1.12-1.59,2.46-2.89,4.16-3.8,1.99-1.07,4.12-1.53,6.38-1.26,1.33.16,2.7.24,3.98.6,3.73,1.05,5.85,3.71,6.69,7.36.46,2.03.75,4.14.78,6.22.1,6.26.03,12.52.05,18.78Z"/>
</svg>