<?xml version="1.0" encoding="UTF-8"?>
<svg id="Layer_1" data-name="Layer 1" xmlns="http://www.w3.org/2000/svg" viewBox="0 0 400 400">
  <defs>
    <style>
      .cls-1 {
        fill: #fff;
      }
    </style>
  </defs>
  <path class="cls-1" d="M176.83,20.1c-9.56,0-17.39,7.81-17.39,17.36v98.64H28.56c-9.51,0-17.27,7.75-17.27,17.24v126.98c0,9.49,7.78,17.24,17.27,17.24h16.71v19.53c0,3.75,2.42,6.87,5.43,8.12,3,1.25,6.9.71,9.55-1.9l25.8-25.74h85.66v62.53c0,7.6,6.25,13.84,13.86,13.84h76.55l19.06,18.98c2.26,2.24,5.6,2.7,8.16,1.63,2.56-1.07,4.63-3.75,4.63-6.93v-13.68h11.62c7.6,0,13.84-6.24,13.84-13.84v-95.04c0-7.6-6.24-13.84-13.84-13.84h-99.52v-68.24h74.43l26.03,26h.01s.01-.01.01-.01c2.67,2.67,6.58,3.13,9.59,1.89,3.03-1.26,5.45-4.37,5.45-8.13v-19.75h16.9c9.56,0,17.39-7.78,17.39-17.34V37.46c.01-9.56-7.81-17.36-17.37-17.36h-161.69ZM176.83,27.43h161.68c5.64,0,10.08,4.42,10.08,10.03v128.15c0,5.62-4.44,10.03-10.08,10.03h-20.58c-2.02,0-3.65,1.64-3.66,3.66v23.41c-.01.81-.38,1.14-.94,1.38-.56.23-1.04.26-1.63-.32l-27.13-27.05h.03c-.69-.69-1.63-1.07-2.61-1.07h-75.95v-22.31c0-9.49-7.76-17.24-17.26-17.24h-22.06V37.46c.01-5.62,4.44-10.03,10.09-10.03h0ZM279.98,54.57c-7.92,0-15.85,3.03-21.9,9.04l-.41.41-.4-.41c-12.11-12.03-31.73-12.03-43.83,0-12.11,12.03-12.11,31.61,0,43.64l2.99,2.96,33.5,33.28c4.26,4.23,11.25,4.23,15.51,0l33.5-33.28,2.99-2.96c12.11-12.03,12.11-31.61,0-43.64-6.05-6.02-14.02-9.04-21.93-9.04h-.02ZM235.35,61.85c6.05,0,12.1,2.33,16.76,6.96l2.99,2.96h0c1.42,1.44,3.74,1.44,5.16.01l2.99-2.96c4.66-4.63,10.68-6.91,16.74-6.91s12.1,2.29,16.76,6.91c9.32,9.26,9.32,23.98,0,33.24l-2.96,2.96-33.53,33.28c-1.45,1.44-3.72,1.44-5.17,0l-33.51-33.28-2.99-2.96c-9.32-9.26-9.32-23.98,0-33.24,4.66-4.63,10.71-6.96,16.76-6.96h.02ZM28.56,143.41h160.23c5.58,0,9.95,4.38,9.95,9.93v97.88h-13.17c-7.6,0-13.86,6.24-13.86,13.84v25.19h-87.15c-.97-.01-1.89.37-2.58,1.04l-26.88,26.79c-.57.57-1.03.56-1.58.32-.54-.23-.91-.54-.91-1.35v-23.17h0c0-2.01-1.64-3.63-3.65-3.65h-20.4c-5.58,0-9.95-4.38-9.95-9.93v-126.97c0-5.55,4.37-9.93,9.95-9.93h0ZM106.15,157.94c-4.42,0-8.48,2.56-10.36,6.58l-14.79,31.57h-21.88c-4.7,0-8.6,3.9-8.6,8.6v56.15c0,4.7,3.9,8.6,8.6,8.6h82c7.72,0,14.47-5.32,16.26-12.82l10.77-45.3c1.83-7.68-4.15-15.22-12.04-15.22h-35.36v-28.18c0-5.46-4.51-9.96-9.98-9.96h-4.61ZM106.15,165.25h4.63c1.52,0,2.67,1.16,2.67,2.67v31.86h0c0,2.01,1.64,3.63,3.65,3.65h39c3.35,0,5.7,2.94,4.94,6.18l-10.77,45.32c-1.01,4.23-4.78,7.18-9.15,7.18h-54.13v-61.52l15.44-32.97c.67-1.44,2.11-2.36,3.72-2.36h0ZM59.11,203.42h20.54v58.69h-20.54c-.76,0-1.27-.54-1.27-1.27v-56.15c0-.73.51-1.27,1.27-1.27h0ZM185.57,258.54h120c3.69,0,6.53,2.86,6.53,6.52v95.04c0,3.66-2.84,6.52-6.53,6.52h-15.26.01c-.98-.01-1.92.37-2.61,1.05-.69.67-1.07,1.61-1.08,2.58v17.36c0,.23,0,.12-.12.16-.1.04-.01.12-.18-.04l-20.14-20.07h.03c-.69-.67-1.61-1.05-2.58-1.05h-78.06c-3.69,0-6.53-2.86-6.53-6.52v-95.04c0-3.66,2.84-6.52,6.53-6.52h-.02ZM233.63,282.7c-.97,0-1.9.4-2.59,1.08-.67.69-1.07,1.63-1.05,2.59v10.63h-10.69c-2.01,0-3.65,1.64-3.65,3.66s1.64,3.65,3.65,3.65h10.68v16.49h-10.68c-2.01.01-3.65,1.64-3.65,3.66s1.64,3.65,3.65,3.66h10.68v10.63h.01c-.01.97.38,1.9,1.05,2.59.69.69,1.63,1.08,2.59,1.08s1.92-.38,2.61-1.07c.69-.7,1.07-1.64,1.07-2.61v-10.63h16.55v10.63c-.01.97.37,1.9,1.05,2.59s1.63,1.08,2.59,1.08,1.92-.38,2.61-1.07c.69-.69,1.07-1.63,1.07-2.61v-10.63h10.68c2.02-.01,3.66-1.64,3.66-3.66s-1.64-3.65-3.66-3.66h-10.68v-16.49h10.68c2.02,0,6.6-1.63,3.66-3.65s-1.64-3.66-3.66-3.66h-10.68v-10.63c0-.98-.38-1.92-1.07-2.61-.69-.69-1.63-1.07-2.61-1.07s-1.9.4-2.59,1.08c-.69.69-1.07,1.63-1.05,2.59v10.63h-16.55v-10.63c0-.98-.38-1.92-1.07-2.61-.69-.69-1.63-1.07-2.61-1.07h0ZM237.31,304.32h16.55v16.49h-16.55v-16.49Z"/>
</svg>