<?xml version="1.0" encoding="UTF-8"?>
<svg id="Layer_1" data-name="Layer 1" xmlns="http://www.w3.org/2000/svg" viewBox="0 0 480 400">
  <defs>
    <style>
      .cls-1 {
        fill: #fff;
        fill-rule: evenodd;
      }
    </style>
  </defs>
  <path class="cls-1" d="M140.12,141.58c3.09,0,5.59,2.5,5.59,5.59s-2.5,5.59-5.59,5.59h-49.86c-1.04,4.48-3.34,8.5-6.49,11.63-4.4,4.4-10.5,7.15-17.24,7.15s-12.82-2.72-17.24-7.15c-4.4-4.4-7.15-10.5-7.15-17.24s2.72-12.82,7.15-17.24c4.4-4.4,10.5-7.15,17.24-7.15s12.82,2.72,17.24,7.15c3.15,3.15,5.45,7.15,6.49,11.63l49.86.04ZM220.73,321.85c.55,4.38,2.56,8.31,5.53,11.28,3.52,3.5,8.37,5.67,13.74,5.67s10.22-2.17,13.74-5.69c2.97-2.97,4.98-6.9,5.53-11.28l-38.53.02ZM270.53,321.52c5.51-.88,10.42-3.5,14.21-7.29,4.69-4.69,7.62-11.18,7.62-18.33v-50.21c0-9.19,1.33-17.67,4.07-25.57,2.74-7.96,6.92-15.46,12.55-22.67,5.96-7.6,10.67-16.15,13.86-25.41,3.09-8.95,4.77-18.55,4.77-28.54,0-24.18-9.81-46.09-25.66-61.93-15.87-15.85-37.78-25.66-61.96-25.66s-46.09,9.81-61.93,25.66c-15.85,15.85-25.66,37.76-25.66,61.93,0,9.99,1.68,19.59,4.77,28.54,3.19,9.25,7.9,17.81,13.86,25.41,5.65,7.21,9.81,14.7,12.55,22.67,2.72,7.92,4.07,16.4,4.07,25.57v50.21c0,7.15,2.91,13.64,7.62,18.33,3.77,3.77,8.7,6.39,14.21,7.29.51,7.6,3.83,14.46,8.89,19.51,5.51,5.55,13.17,8.97,21.62,8.97s16.11-3.42,21.64-8.97c5.08-5.08,8.37-11.92,8.89-19.51h0ZM281.15,291.09v4.81c0,4.05-1.66,7.74-4.32,10.42-2.68,2.66-6.37,4.32-10.42,4.32h-52.83c-4.05,0-7.74-1.66-10.42-4.32-2.66-2.66-4.32-6.35-4.32-10.42v-4.81h82.31ZM198.84,260.34h82.31v19.55h-82.31v-19.55ZM294.03,89.49c-13.84-13.84-32.94-22.38-54.04-22.38s-40.19,8.56-54.04,22.38c-13.82,13.82-22.38,32.92-22.38,54.04,0,8.72,1.45,17.1,4.16,24.9,2.81,8.11,6.9,15.6,12.06,22.17,6.39,8.17,11.14,16.75,14.31,25.9,3.17,9.19,4.73,18.88,4.73,29.22v3.44h82.31v-3.44c0-10.34,1.56-20.02,4.73-29.22,3.15-9.15,7.9-17.73,14.31-25.9,5.16-6.57,9.25-14.07,12.06-22.17,2.68-7.8,4.16-16.18,4.16-24.9-.02-21.11-8.56-40.21-22.38-54.04h0ZM332.54,114.9c-3.09,0-5.59-2.5-5.59-5.59s2.5-5.59,5.59-5.59h18.43v-29.34c0-3.09,2.5-5.59,5.59-5.59h17.57c1.04-4.48,3.34-8.5,6.49-11.63,4.4-4.4,10.5-7.15,17.24-7.15s12.82,2.72,17.24,7.15c4.4,4.4,7.15,10.5,7.15,17.24s-2.72,12.82-7.15,17.24c-4.4,4.4-10.5,7.15-17.24,7.15s-12.82-2.72-17.24-7.15c-3.15-3.15-5.45-7.15-6.49-11.63l-11.96-.04v29.34c0,3.09-2.5,5.59-5.59,5.59h-24.04ZM407.18,65.05c-2.38-2.38-5.67-3.87-9.32-3.87s-6.94,1.47-9.32,3.87c-2.38,2.38-3.87,5.67-3.87,9.32s1.47,6.94,3.87,9.32c2.38,2.38,5.67,3.87,9.32,3.87s6.94-1.47,9.32-3.87c2.38-2.38,3.85-5.67,3.85-9.32.02-3.62-1.45-6.92-3.85-9.32ZM445.08,235.34c3.64,0,6.94-1.47,9.32-3.85,2.37-2.38,3.87-5.67,3.87-9.32s-1.47-6.94-3.87-9.32c-2.38-2.38-5.67-3.87-9.32-3.87s-6.94,1.47-9.32,3.87c-2.38,2.38-3.87,5.67-3.87,9.32s1.47,6.94,3.87,9.32c2.4,2.37,5.67,3.85,9.32,3.85ZM462.32,239.39c-4.4,4.4-10.5,7.15-17.24,7.15s-12.82-2.72-17.24-7.15c-3.15-3.15-5.45-7.15-6.49-11.63h-61.77c-3.09,0-5.59-2.5-5.59-5.59v-29.36h-24.65c-3.09,0-5.59-2.5-5.59-5.59s2.5-5.59,5.59-5.59h30.26c3.09,0,5.59,2.5,5.59,5.59v29.34h56.16c1.04-4.48,3.34-8.5,6.49-11.63,4.4-4.4,10.5-7.15,17.24-7.15s12.82,2.72,17.24,7.15c4.4,4.4,7.15,10.5,7.15,17.24s-2.74,12.82-7.15,17.22h0ZM413.46,160.36c3.64,0,6.94-1.47,9.32-3.85,2.37-2.38,3.87-5.67,3.87-9.32s1.47-6.94-3.87-9.32c-2.38-2.38-5.67-3.87-9.32-3.87s-6.94,1.47-9.32,3.87c-2.38,2.38-3.87,5.67-3.87,9.32s1.47,6.94,3.87,9.32c2.38,2.38,5.67,3.85,9.32,3.85ZM430.68,164.41c-4.4,4.4-10.5,7.15-17.24,7.15s-12.82-2.72-17.24-7.15c-3.15-3.15-5.45-7.15-6.49-11.63l-49.83-.02c-3.09,0-5.59-2.5-5.59-5.59s2.5-5.59,5.59-5.59h49.83c1.04-4.48,3.34-8.5,6.49-11.63,4.4-4.4,10.5-7.15,17.24-7.15s12.82,2.72,17.24,7.15c4.4,4.4,7.15,10.5,7.15,17.24s-2.72,12.8-7.15,17.22h0ZM82.14,61.2c-3.64,0-6.94,1.47-9.32,3.87-2.38,2.38-3.85,5.67-3.85,9.32s1.47,6.94,3.85,9.32c2.38,2.37,5.67,3.87,9.32,3.87s6.94-1.47,9.32-3.87c2.38-2.38,3.87-5.67,3.87-9.32s-1.47-6.94-3.87-9.32c-2.38-2.4-5.67-3.87-9.32-3.87Z64.9,57.15c4.4-4.4,10.5-7.15,17.24-7.15s12.82,2.72,17.24,7.15c3.15,3.15,5.45,7.15,6.49,11.63h17.57c3.09,0,5.59,2.5,5.59,5.59v29.34h18.43c3.09,0,5.59,2.5,5.59,5.59s-2.5,5.59-5.59,5.59h-24.02c-3.09,0-5.59-2.5-5.59-5.59v-29.34h-11.96c-1.04,4.48-3.34,8.5-6.49,11.63-4.4,4.4-10.5,7.15-17.24,7.15s-12.82-2.72-17.24-7.15c-4.4-4.4-7.15-10.5-7.15-17.24s2.72-12.8,7.13-17.2h0ZM34.92,246.54c-6.74,0-12.82-2.72-17.24-7.15-4.4-4.4-7.15-10.5-7.15-17.24s2.72-12.82,7.15-17.24c4.4-4.4,10.5-7.15,17.24-7.15s12.82,2.72,17.24,7.15c3.15,3.15,5.45,7.15,6.49,11.63h56.16v-29.34c0-3.09,2.5-5.59,5.59-5.59h30.26c3.09,0,5.59,2.5,5.59,5.59s-2.5,5.59-5.59,5.59h-24.65v29.34c0,3.09-2.5,5.59-5.59,5.59l-61.77.04c-1.04,4.48-3.34,8.5-6.49,11.63-4.42,4.42-10.52,7.15-17.24,7.15h0ZM25.61,231.49c2.4,2.38,5.67,3.85,9.32,3.85s6.94-1.47,9.32-3.85c2.37-2.38,3.87-5.67,3.87-9.32s1.47-6.94-3.87-9.32c-2.38-2.38-5.67-3.87-9.32-3.87s-6.94,1.47-9.32,3.87c-2.38,2.38-3.85,5.67-3.85,9.32-.02,3.62,1.45,6.92,3.85,9.32ZM79.72,147.18c0-3.64-1.47-6.94-3.87-9.32-2.38-2.38-5.67-3.87-9.32-3.87s-6.94,1.47-9.32,3.87c-2.38,2.38-3.85,5.67-3.85,9.32s1.47,6.94,3.85,9.32c2.4,2.38,5.67,3.85,9.32,3.85s6.94-1.47,9.32-3.85c2.4-2.38,3.87-5.67,3.87-9.32Z"/>
</svg>