<?xml version="1.0" encoding="UTF-8"?>
<svg id="Layer_1" data-name="Layer 1" xmlns="http://www.w3.org/2000/svg" viewBox="0 0 400 400">
  <defs>
    <style>
      .cls-1 {
        fill: #fff;
      }
    </style>
  </defs>
  <path class="cls-1" d="M201.33,298.62c-16.26,0-32.34-4.16-46.51-12.03-22.47-12.4-38.78-32.83-45.89-57.52-7.11-24.68-4.19-50.66,8.22-73.15,16.94-30.66,49.2-49.71,84.18-49.71,16.25,0,32.32,4.15,46.48,12.01,22.13,11.87,38.37,32.36,45.73,57.72,7.04,24.25,4.2,50.15-8,72.92-16.97,30.72-49.23,49.76-84.21,49.76ZM201.33,116.21c-31.34,0-60.25,17.07-75.43,44.54-11.12,20.15-13.74,43.44-7.36,65.55,6.37,22.12,20.98,40.43,41.12,51.54,12.7,7.05,27.1,10.78,41.67,10.78,31.34,0,60.25-17.07,75.43-44.54,10.92-20.39,13.48-43.62,7.17-65.35-6.61-22.76-21.13-41.13-40.88-51.71l-.07-.04c-12.68-7.05-27.09-10.77-41.65-10.77Z"/>
  <g>
    <path class="cls-1" d="M365.5,281.59l-57.94-32.09,1.61-4.08c9.62-24.43,10.9-50.35,3.68-74.96-4.8-14.38-10.78-26.33-18.26-36.54l-2.61-3.55,47.23-44.79,3.99-3.99,3.47,4.54c20.21,26.43,32.97,57.96,36.91,91.19,4.03,34.01-1.45,68.39-15.82,99.41l-2.26,4.87ZM320.02,244.97l40.86,22.63c11.96-28.03,16.37-58.72,12.78-89.11-3.5-29.59-14.4-57.75-31.61-81.81l-36.85,34.94c6.94,10.25,12.58,22,17.17,35.77l.05.17c7.47,25.41,6.63,52.08-2.4,77.41Z"/>
    <path class="cls-1" d="M277.24,116.66l-3.44-3.44c-4.79-4.79-10.32-8.3-17.13-12.09-17.84-9.66-36.72-14.57-56.1-14.57h-7.89l-13.07-64.54v-5.6l4.29-.61c5.67-.81,11.92-.81,17.43-.81,31.94,0,62.22,8.11,87.59,23.45,12.79,6.78,24.53,15.21,35.9,25.77l3.8,3.53-4.53,4.52-46.86,44.39ZM200.86,76.56c20.95.05,41.34,5.36,60.62,15.8,6.02,3.34,11.15,6.51,15.81,10.48l36.79-34.85c-9.53-8.34-19.37-15.17-29.96-20.77l-.25-.14c-23.83-14.44-52.37-22.08-82.53-22.08-3.47,0-7.26,0-10.87.21l10.4,51.35Z"/>
    <path class="cls-1" d="M105.5,137.48l-60.99-33.59,2.88-4.5c24.64-38.5,62.66-66.25,107.04-78.14l6.29-1.69v7.52l12.99,62.5-4.38,1.33c-25.24,7.65-46.42,22.51-61.24,42.99l-2.59,3.58ZM58.76,100.32l43.89,24.17c15.04-19.28,35.44-33.61,59.42-41.76l-10.45-50.29c-37.94,11.47-70.59,35.33-92.86,67.88Z"/>
  </g>
  <g>
    <path class="cls-1" d="M197.49,385c-5.12,0-10.24-.21-15.36-.64l-5.69-.48,1.21-5.51,12.25-63.93,4.4.28c12.63.8,25.92-.61,40.62-4.33,24.61-7.19,45.75-22.24,61.14-43.52l2.57-3.55,58.27,31.49-2.89,4.53c-18.37,28.83-44.37,51.97-75.19,66.93-25.45,12.35-53.29,18.73-81.33,18.73ZM188.51,374.77c29.54,1.52,59.13-4.49,85.94-17.5,27.53-13.36,51-33.63,68.16-58.81l-41.09-22.21c-16.47,21.27-38.47,36.36-63.9,43.76l-.17.05c-14.07,3.56-27,5.15-39.38,4.83l-9.56,49.87Z"/>
    <path class="cls-1" d="M156.91,379.07l-5.02-1.3c-15.02-3.88-28.45-9.22-41.06-16.34-26.6-13.09-49.76-34.22-66.98-61.12-2.98-4.65-6.34-9.91-8.71-15.12l-1.8-3.95,4.71-3.02,61.4-23.79,4.25,6.64c10.45,16.31,24.77,29.57,42.57,39.41,6.82,3.67,12.75,6.43,19.37,7.89l4.75,1.04-12.38,64.58-1.11,5.07ZM46.59,285.65c1.77,3.15,3.8,6.34,5.67,9.26,16.27,25.42,38.09,45.34,63.11,57.62l.26.14c10.43,5.89,21.48,10.51,33.65,14.03l9.52-49.78c-6.3-1.94-12.01-4.78-17.3-7.63-19.23-10.63-34.7-24.93-46.04-42.55l-48.85,18.93Z"/>
    <path class="cls-1" d="M25.8,263.66l-1.97-6.21c-13.92-43.79-11.05-90.77,8.08-132.28l2.24-4.85,61.18,33.25-1.62,4.11c-9.25,23.53-10.35,49.38-3.18,74.76l1.24,4.4-59.63,22.76-6.33,4.06ZM38.83,134.24c-15.4,36.31-17.89,76.67-7.09,114.81l47.99-18.32c-6.08-24.59-5-49.5,3.12-72.56l-44.03-23.93Z"/>
  </g>
</svg>