<?xml version="1.0" encoding="UTF-8"?>
<svg id="Layer_1" data-name="Layer 1" xmlns="http://www.w3.org/2000/svg" viewBox="0 0 30 30">
  <defs>
    <style>
      .cls-1 {
        fill: #fff;
      }
    </style>
  </defs>
  <path class="cls-1" d="M23.09,10.39c-.37,0-.66.3-.66.66v4.42c0,4.1-3.34,7.44-7.44,7.44s-7.44-3.34-7.44-7.44v-4.42c0-.37-.3-.66-.66-.66s-.66.3-.66.66v4.42c0,4.61,3.58,8.4,8.11,8.74v3.9h-3.26c-.37,0-.66.3-.66.66s.3.66.66.66h7.86c.37,0,.66-.3.66-.66s-.3-.66-.66-.66h-3.26v-3.9c4.52-.34,8.11-4.13,8.11-8.74v-4.42c-.02-.37-.32-.66-.69-.66h0ZM14.98,21.55c3.51,0,6.37-2.86,6.37-6.37V6.92c0-3.51-2.86-6.37-6.37-6.37s-6.37,2.86-6.37,6.37v8.25c0,3.51,2.86,6.37,6.37,6.37ZM9.95,6.92c0-2.78,2.26-5.04,5.04-5.04,2.55,0,4.67,1.91,4.99,4.37h-4.99c-.37,0-.66.3-.66.66s.3.66.66.66h5.04v2.8h-5.04c-.37,0-.66.3-.66.66s.3.66.66.66h5.04v2.8h-5.04c-.37,0-.66.3-.66.66s.3.66.66.66h4.99c-.33,2.46-2.44,4.37-4.99,4.37-2.78,0-5.04-2.26-5.04-5.04V6.92Z"/>
</svg>