<?xml version="1.0" encoding="UTF-8"?>
<svg id="Layer_1" data-name="Layer 1" xmlns="http://www.w3.org/2000/svg" viewBox="0 0 30 30">
  <defs>
    <style>
      .cls-1 {
        fill: #fff;
      }
    </style>
  </defs>
  <path class="cls-1" d="M28.16,2.05c-.21,0-.42.05-.6.15l-.19.1-1.06-1.22c-.41-.49-1.1-.66-1.7-.42-6.22,2.46-8.7,5.36-9.61,6.8-.91-1.44-3.39-4.34-9.61-6.8-.6-.24-1.29-.07-1.7.41l-1.06,1.22-.19-.1c-.18-.09-.39-.15-.6-.15-.72,0-1.3.58-1.3,1.3v18.16c0,.47.25.9.66,1.13l12.05,6.75s.02,0,.03.01.02,0,.04.01c.05.02.11.03.17.03h2.99c.06,0,.11-.01.17-.03.01,0,.02,0,.04-.01,0,0,.02,0,.03-.01l12.05-6.75c.41-.23.66-.66.66-1.13V3.34c0-.72-.58-1.3-1.3-1.3h.02ZM24.99,1.58c.2-.08.43-.02.57.14l.9,1.04-10.08,5.26h-.55c.79-1.25,3.12-4.06,9.15-6.44h0ZM14.02,9.02h1.99v2.99h-1.99v-2.99ZM14.02,13.01h1.99v10.96h-1.99v-10.96ZM4.47,1.72c.13-.16.37-.22.57-.14,6.03,2.39,8.36,5.19,9.15,6.44h-.55L3.56,2.76l.91-1.05ZM1.56,21.5V3.34c0-.16.13-.3.3-.3.05,0,.09,0,.14.03l11.02,5.75v19.27L1.72,21.77c-.09-.05-.15-.15-.15-.26h0ZM14.02,24.96h1.99v3.49h-1.99v-3.49ZM28.47,21.5c0,.11-.06.21-.15.26l-11.31,6.33V8.82l11.02-5.75c.19-.1.44.05.44.27v18.16Z"/>
</svg>