<?xml version="1.0" encoding="UTF-8"?>
<svg id="Layer_1" data-name="Layer 1" xmlns="http://www.w3.org/2000/svg" xmlns:xlink="http://www.w3.org/1999/xlink" viewBox="0 0 30 30">
  <defs>
    <style>
      .cls-1 {
        fill: #fff;
      }

      .cls-2 {
        clip-path: url(#clippath);
      }
    </style>
    <clipPath id="clippath">
      <path class="cls-1" d="M18.44,28.63h-.08s-.08.02-.08.02h-.08s-.08.02-.08.02h-.08s-.08.01-.08.01h-.08s-.08.01-.08.01h-.08s-.08,0-.08,0h-.08s-.08,0-.08,0h-.08s-.08,0-.08,0h-.08s-.08,0-.08,0h-.08s-.08,0-.08,0h-.06s0,.16,0,.16h.06s.08,0,.08,0h.08s.08,0,.08,0h.08s.08,0,.08,0h.08s.08,0,.08,0h.08s.08,0,.08,0h.08s.08-.01.08-.01h.08s.08-.01.08-.01h.08s.08-.01.08-.01h.08s.08-.02.08-.02h.08s.03-.01.03-.01l-.02-.15h-.03ZM14.6,28.67h.02s.08.02.08.02h.08s.08.03.08.03h.08s.08.02.08.02h.08s.08.02.08.02h.08s.08.02.08.02h.08s.08.02.08.02h.08s.08.02.08.02h.08s.08.01.08.01h.08s.08.01.08.01h.08s.06,0,.06,0v-.16s-.05,0-.05,0h-.08s-.08-.01-.08-.01h-.08s-.08-.01-.08-.01h-.08s-.08-.01-.08-.01h-.08s-.08-.02-.08-.02h-.08s-.08-.02-.08-.02h-.08s-.08-.02-.08-.02h-.08s-.08-.02-.08-.02h-.08s-.08-.02-.08-.02h-.08s-.08-.03-.08-.03h-.02s-.03.15-.03.15ZM12.33,28.09l.05.02.08.03.08.03.08.03.08.03.08.03.08.02.08.02.08.02.08.02.08.02.08.02.08.02.08.02.08.02.08.02.08.02.08.02.08.02.08.02h.02s.03-.15.03-.15h-.02s-.08-.02-.08-.02l-.08-.02-.08-.02-.08-.02-.08-.02-.08-.02-.08-.02-.08-.02-.08-.02-.08-.02-.08-.02-.08-.02-.08-.02-.08-.02-.08-.03-.08-.03-.08-.03-.08-.03-.05-.02-.05.15ZM10.2,27.13l.05.03.07.04.07.04.07.04.07.04.07.04.07.04.07.04.08.04.08.04.08.04.08.04.08.04.08.03.08.03.08.03.08.03.08.03.07.03.06-.14-.07-.03-.08-.03-.08-.03-.08-.03-.08-.03-.08-.03-.07-.03-.07-.04-.07-.04-.07-.04-.07-.04-.07-.04-.07-.04-.07-.04-.07-.04-.07-.04-.07-.04-.07-.04-.05-.03-.08.14ZM23.05,26.07l-.05.03-.07.04-.07.04-.07.04h0s-.07.04-.07.04l-.07.04-.07.04-.07.03-.07.03-.07.03-.07.03-.07.03h0s-.07.03-.07.03l-.07.03-.07.03-.07.03-.07.03-.07.03-.07.03-.07.03-.07.03-.07.03-.07.03-.07.03-.07.03-.07.03-.07.03-.07.03-.07.02-.07.02-.07.02-.07.02-.07.02h0s-.07.02-.07.02l-.07.02-.07.02-.07.02-.07.02h0s-.08.02-.08.02l-.07.02-.07.02-.08.02-.07.02-.08.02-.07.02-.07.02-.08.02-.08.02-.08.02h-.02s0,.02,0,.02l.21,1.03h-.04s-.08.02-.08.02l-.08.02h-.08s-.08.03-.08.03h-.08s0,.02,0,.02l.03.15h0s.08-.02.08-.02h.08s.08-.03.08-.03l.08-.02.08-.02h.04s.18.84.18.84v.02s.02,0,.02,0l.08-.02.09-.02.09-.02.09-.02.09-.02h0l.09-.02.09-.02.09-.02.09-.02h0l.09-.02.09-.02h0s.09-.02.09-.02l.09-.02.09-.03.09-.03h0l.09-.03.09-.03h0l.09-.03.09-.03.09-.03h0s.09-.03.09-.03l.09-.03.09-.03.09-.03.09-.03h0l.09-.03h0l.09-.03.09-.03.09-.03h0s.08-.03.08-.03h0l.08-.03h0l.09-.04h0l.08-.04.08-.04h0s.08-.04.08-.04h0l.08-.04.08-.04h0l.08-.04h0l.08-.04h0l.08-.04.08-.04h0l.08-.04h0l.08-.04h0l.08-.04.08-.04h0l.08-.04.08-.04h0l.08-.04h0l.07-.04h.02s0-.03,0-.03l-.43-.78.03-.02.07-.04.07-.04.07-.04.07-.04.07-.04.07-.04.07-.04.07-.04.07-.05.07-.05.07-.05.07-.05.07-.05.07-.05.07-.05.07-.05.07-.05.06-.05-.09-.13-.06.05-.07.05-.07.05-.07.05-.07.05-.07.05-.07.05-.07.05-.07.05-.07.04-.07.04-.07.04-.07.04-.07.04-.07.04-.07.04-.07.04-.07.04-.03.02-.5-.9v-.02s-.03,0-.03,0ZM8.27,25.82h0s.07.06.07.06l.07.05.07.05.07.05.07.05.07.05.07.05.07.05.07.05.07.05.07.05.07.05.07.05.07.05.07.05.07.05.07.05.07.05h0s.08-.13.08-.13h0s-.07-.05-.07-.05l-.07-.05-.07-.05-.07-.05-.07-.05-.07-.05-.07-.05-.07-.05-.07-.05-.07-.05-.07-.05-.07-.05-.07-.05-.07-.05-.07-.05-.07-.05-.07-.05-.07-.05h0s-.1.12-.1.12ZM26.56,24.71l-.06.06-.06.06-.06.06-.06.06-.06.06-.06.06-.06.06-.06.06-.06.06-.06.06-.06.06-.06.06-.06.06-.07.05-.07.05-.07.05-.06.05.1.12.06-.05.07-.05.07-.06.07-.06.07-.06.07-.06.06-.06.06-.06.06-.06.06-.06.06-.06.06-.06.06-.06.06-.06.06-.06.06-.06.06-.06.06-.06-.11-.11-.06.06ZM6.58,24.2l.04.04.06.06.06.07.06.06.06.06.06.06.06.06.06.06.06.06.06.06.06.06.06.06.06.06.06.06.06.06.06.06.06.06.06.06h0s.1-.11.1-.11l-.06-.06-.06-.06-.06-.06-.06-.06-.06-.06-.06-.06-.06-.06-.06-.06-.06-.06-.06-.06-.06-.06-.06-.06-.06-.06-.06-.06-.06-.06-.06-.06-.06-.06-.04-.04-.12.1ZM16.97,23.81h-.05v.52h.05v-.52h0ZM16.61,24.32h.05s0,0,0,0v-.52h-.05s0,.52,0,.52ZM17.24,23.8h0v.52h.05v-.52h-.05ZM16.3,24.3h.04s.01,0,.01,0v-.52s-.01,0-.01,0h-.04s0,.51,0,.51ZM17.55,23.79h0s0,.52,0,.52h.05v-.52h-.04ZM15.99,24.28h.04s.02,0,.02,0v-.52s-.02,0-.02,0h-.04s0,.51,0,.51ZM17.87,23.76h-.01s0,.52,0,.52h.01s.04,0,.04,0v-.52s-.04,0-.04,0ZM15.68,24.24h.03s.02,0,.02,0v-.52s-.02,0-.02,0h-.03s0,.51,0,.51ZM18.18,23.72h-.02s0,.52,0,.52h.01s.04,0,.04,0v-.52s-.04,0-.04,0ZM15.37,24.19h.03s.02,0,.02,0v-.52s-.02,0-.02,0h-.03s0,.51,0,.51ZM18.49,23.67h-.02s0,.52,0,.52h.02s.03,0,.03,0v-.52s-.04,0-.04,0ZM15.06,24.13h.03s.02.01.02.01v-.52s-.02,0-.02,0h-.03s0,.51,0,.51ZM18.8,23.61h-.02s0,.52,0,.52h.02s.03-.01.03-.01v-.52s-.04,0-.04,0ZM14.75,24.06h.03s.02.01.02.01v-.52s-.02,0-.02,0h-.03s0,.51,0,.51ZM19.11,23.54h-.02s0,.52,0,.52h.02s.04-.01.04-.01v-.52s-.04,0-.04,0ZM14.44,23.98h.03s.02.01.02.01v-.52s-.02,0-.02,0h-.03s0,.51,0,.51ZM19.42,23.45h-.01s0,.52,0,.52h.01s.04-.01.04-.01v-.52s-.04.01-.04.01ZM14.13,23.88h.04s.02.02.02.02v-.52s-.01,0-.01,0h-.04s0,.51,0,.51ZM19.72,23.36h0s0,.52,0,.52h0s.05-.02.05-.02v-.52s-.05.02-.05.02ZM13.82,23.78l.04.02h0s0-.51,0-.51h0s-.04-.02-.04-.02v.52ZM20.07,23.24l-.05.02v.52s.05-.02.05-.02h0s0-.52,0-.52h0ZM13.51,23.66h0s.05.02.05.02v-.52s-.04-.02-.04-.02h0s0,.51,0,.51ZM20.37,23.12h-.03s0,.53,0,.53h.03s.02-.02.02-.02v-.52s-.02,0-.02,0ZM20.66,22.99h-.02s0,.52,0,.52h.02s.04-.02.04-.02v-.52s-.04.02-.04.02ZM21,22.83l-.04.02v.52s.05-.02.05-.02h0s0-.52,0-.52h0ZM21.28,22.68h-.02s0,.53,0,.53h.02s.03-.03.03-.03v-.52s-.04.02-.04.02ZM21.61,22.48l-.04.02v.52s.04-.02.04-.02h.02s0-.53,0-.53h-.02ZM21.93,22.28l-.05.03h0s0,.52,0,.52h0s.05-.03.05-.03h0s0-.52,0-.52h0ZM22.24,22.06l-.04.03h0s0,.52,0,.52h0s.04-.04.04-.04h0s0-.52,0-.52h0ZM22.55,21.82l-.04.03h0s0,.52,0,.52h0s.04-.04.04-.04h0s0-.52,0-.52h0ZM22.84,21.57l-.03.03v.51s.04-.03.04-.03l.02-.02v-.51s-.02.02-.02.02ZM23.13,21.31h-.01s0,.53,0,.53h.01s.04-.05.04-.05v-.51s-.05.04-.05.04ZM4.39,20.45h0s-.03-.08-.03-.08l-.03-.08-.03-.08-.02-.04-.14.06.02.04.03.08.03.08.03.08h0s-.88.38-.88.38l.03.07.04.08.04.08.04.08.04.08.04.08.04.08.04.08.04.08.04.08.04.08.04.08.04.08.04.08.04.08.04.08.04.08.04.08.04.08.04.08.05.08.05.08.05.08.05.08.05.08.05.08.05.08.05.08.05.08.05.08.05.08.05.08.05.08.05.08.05.08.05.08.05.07.05.07.05.07.05.07.06.07.06.07.06.07.06.07.06.07.06.07.06.07.06.07.06.07.06.07.05.06,1.57-1.35-.04-.05-.05-.06-.05-.06-.05-.06-.05-.06-.05-.06-.05-.06-.05-.06-.05-.06-.05-.06-.05-.06-.05-.06-.05-.06-.05-.06-.05-.06-.05-.06-.04-.06-.04-.06-.04-.07-.04-.07-.04-.07-.04-.07-.04-.07-.04-.07-.04-.07-.04-.07-.04-.07-.04-.07-.04-.07-.04-.07-.04-.07-.04-.07-.04-.07-.04-.07-.04-.07-.04-.07-.04-.07-.04-.07-.04-.07-.04-.07-.04-.07-.03-.07-.03-.07-.03-.07-.03-.07-.03-.07-.03-.07-.03-.07-.03-.07-.03-.07-.88.38ZM3.45,18v.05s.03.08.03.08l.02.08.02.08.02.08.02.08.02.08.02.08.02.08.02.08.02.08.02.08.02.08.02.08.02.08.03.08.03.08.03.08.03.08h0s.15-.04.15-.04h0s-.03-.09-.03-.09l-.03-.08-.03-.08-.02-.08-.02-.08-.02-.08-.02-.08-.02-.08-.02-.08-.02-.08-.02-.08-.02-.08-.02-.08-.02-.08-.02-.08-.02-.08-.02-.08-.02-.08v-.05s-.16.03-.16.03ZM8.01,16.11l-.53.06c.19,1.68.83,3.25,1.81,4.57.98,1.32,2.29,2.38,3.85,3.05l.11-.25h0s0,0,0,0l.3-.69c-1.39-.6-2.56-1.55-3.43-2.72-.87-1.17-1.44-2.57-1.61-4.07l-.47.05v-.04s-.01-.05-.01-.05v-.03s-.01.13-.01.13ZM3.15,15.69v.07s0,.08,0,.08v.08s.01.08.01.08v.08s.01.08.01.08v.08s.01.08.01.08v.08s.02.08.02.08v.08s.02.08.02.08v.08s.02.08.02.08v.08s.02.08.02.08v.08s.02.08.02.08v.08s.17-.02.17-.02v-.08s-.02-.08-.02-.08v-.08s-.02-.08-.02-.08v-.08s-.02-.08-.02-.08v-.08s-.02-.08-.02-.08v-.08s-.02-.08-.02-.08v-.08s-.01-.08-.01-.08v-.08s-.01-.08-.01-.08v-.08s-.01-.08-.01-.08v-.08s0-.08,0-.08v-.07s-.16,0-.16,0ZM8.02,13.54v.06s-.02.06-.02.06v.06s-.01.06-.01.06v.06s0,.03,0,.03l.03.39v-.02s0-.05,0-.05v-.05s.01-.05.01-.05v-.05s.01-.05.01-.05v-.02s-.03-.43-.03-.43v.02ZM3.24,13.36v.08s-.02.08-.02.08v.08s-.02.08-.02.08v.08s-.02.08-.02.08v.08s-.01.08-.01.08v.08s-.01.08-.01.08v.08s0,.08,0,.08v.08s0,.08,0,.08v.08s0,.08,0,.08v.08s0,.08,0,.08v.06s.15,0,.15,0v-.06s0-.08,0-.08v-.08s0-.08,0-.08v-.08s0-.08,0-.08v-.08s0-.08,0-.08v-.08s.01-.08.01-.08v-.08s.01-.08.01-.08v-.08s.01-.08.01-.08v-.08s.02-.08.02-.08v-.08s.02-.08.02-.08v-.08s.01-.01.01-.01l-.15-.02h0ZM8.31,12.24l-.02.05-.02.05v.05s-.02,0-.02,0l.02.49h0s.01-.06.01-.06l.02-.05.02-.05h0s-.02-.49-.02-.49h0ZM8.61,11.41l-.02.05-.02.05h0s.01.51.01.51h0s.02-.06.02-.06l.02-.05v-.02s0-.5,0-.5v.02ZM3.73,11.09l-.02.08-.02.08-.02.08-.02.08-.02.08-.02.08-.02.08-.02.08-.02.08-.02.08-.02.08-.02.08-.02.08-.02.08-.02.08-.02.08-.02.08-.02.08v.03s.15.03.15.03v-.03s.02-.08.02-.08l.02-.08.02-.08.02-.08.02-.08.02-.08.02-.08.02-.08.02-.08.02-.08.02-.08.02-.08.02-.08.02-.08.02-.08.02-.08.02-.08.02-.08v-.03s-.14-.04-.14-.04v.03ZM8.91,10.76l-.03.05-.02.03v.51s.03-.03.03-.03l.03-.05v-.02s0-.51,0-.51v.02ZM9.21,10.22l-.03.05h0s0,.51,0,.51h0s.03-.05.03-.05l.02-.03v-.51s-.03.03-.03.03ZM9.51,9.75l-.03.04v.51s.03-.04.03-.04l.02-.03v-.51s-.03.03-.03.03ZM9.81,9.34l-.02.03v.51s.03-.03.03-.03l.03-.04v-.51s-.04.04-.04.04ZM10.14,8.94l-.04.04h0s0,.52,0,.52h0s.04-.05.04-.05h.01s0-.53,0-.53h-.01ZM4.6,8.91l-.04.08-.04.08-.04.08-.04.08-.04.08-.04.08-.03.08-.03.08-.03.08-.03.08-.03.08-.03.08-.03.08-.03.08-.03.08-.03.08-.03.08-.03.08v.03s.14.05.14.05v-.03s.04-.08.04-.08l.03-.08.03-.08.03-.08.03-.08.03-.08.03-.08.03-.08.03-.08.03-.08.03-.08.03-.08.03-.08.04-.08.04-.08.04-.08.04-.08.04-.08h0s-.14-.08-.14-.08h0ZM11.5,10.13c-2.72,3-2.49,7.62.51,10.34,2.85,2.58,7.16,2.5,9.92-.08l-1.49-1.35c-2.01,1.77-5.06,1.78-7.09-.05-2.18-1.97-2.34-5.34-.37-7.52,1.97-2.18,5.34-2.34,7.52-.37.04.03.07.07.11.1l1.34-1.48s-.07-.07-.11-.1c-1.4-1.27-3.16-1.9-4.91-1.9-1.99,0-3.98.81-5.43,2.4M5.81,6.93l-.05.07-.05.07-.05.07-.05.07-.05.07-.05.07-.05.07-.05.07-.05.07-.05.07-.05.07-.05.07-.05.07-.04.07-.04.07-.04.07-.04.07-.03.05.13.08.03-.05.04-.07.04-.07.04-.07.04-.07.04-.07.04-.07.05-.07.05-.07.05-.07.05-.07.05-.07.05-.07.05-.07.05-.07.05-.07.05-.07.05-.07.02-.03-.12-.09-.02.03ZM16.92,5.85h0c-.09,0-.17,0-.26,0h0s0,0,0,0h-.04c-.09,0-.17,0-.26.01h0s-.02,0-.02,0h-.03c-2.23.15-4.41,1.11-6.07,2.85l.18.17v.26s0,0,0,0l.04-.04h0s0-.17,0-.17l.14.13c1.56-1.64,3.6-2.54,5.7-2.69h0s.03,0,.03,0h.02c.09,0,.17-.01.26-.01h0s.04,0,.04,0h0c.09,0,.17,0,.26,0h0s.05,0,.05,0h0c.09,0,.17,0,.26,0h0s.01,0,.01,0h.04s0,0,0,0c.09,0,.17,0,.26.01h.02s.03,0,.03,0h0c1.9.15,3.77.91,5.27,2.31l.35-.38c-1.6-1.49-3.59-2.3-5.62-2.45h0s-.03,0-.03,0h-.02s0,0,0,0c-.09,0-.17-.01-.26-.01h0s-.04,0-.04,0h-.01s0,0,0,0c-.09,0-.17,0-.26,0h0s-.05,0-.05,0ZM7.37,5.15l-.06.06-.06.06-.06.06-.06.06-.06.06-.06.06-.06.06h0l-.06.06-.06.06-.06.07-.06.07-.06.07-.06.07-.06.07-.06.07-.06.07-.06.07-.04.04.12.1.04-.04.06-.07.06-.07.06-.07.06-.07.06-.07.06-.07.06-.06.06-.06.06-.06.06-.06.06-.06.06-.06.06-.06.06-.06.06-.06.06-.06.06-.06h0s-.11-.11-.11-.11h0ZM16.59,4.67c-2.64.08-5.26,1.16-7.22,3.23h0s0,0,0,0h0c-1.98,2.09-2.94,4.78-2.87,7.45.07,2.67,1.15,5.31,3.23,7.29h0s0,0,0,0c.45.43.94.82,1.44,1.15l-.24.36c.26.17.54.34.81.49.27.15.55.28.85.41l.17-.4c1.35.58,2.8.87,4.24.86,2.62-.02,5.23-1.03,7.23-3.01l-.05-.05-.05-.05c-1.97,1.95-4.54,2.94-7.12,2.97-1.42.01-2.85-.27-4.18-.84l.17-.4c-.25-.11-.51-.24-.77-.38-.25-.14-.5-.28-.73-.44l-.24.37c-.5-.33-.97-.71-1.42-1.13h0s0,0,0,0c-2.05-1.96-3.12-4.56-3.19-7.19-.06-2.63.87-5.28,2.83-7.33h0c1.94-2.04,4.51-3.1,7.12-3.19,2.61-.08,5.25.83,7.3,2.74l.05-.06.05-.06c-2-1.86-4.55-2.78-7.09-2.78-.11,0-.22,0-.33,0M9.17,3.69l-.07.05-.07.05-.07.05-.07.05-.07.05-.07.05-.07.05-.07.05-.07.05-.07.05-.07.05-.07.05-.07.05-.07.05-.07.05-.07.06-.07.06-.07.06.1.12.06-.06.06-.06.07-.05.07-.05.07-.05.07-.05.07-.05.07-.05.07-.05.07-.05.07-.05.07-.05.07-.05.07-.05.07-.05.07-.05.07-.05.07-.05.07-.05h.02s-.09-.14-.09-.14h-.02ZM16.54,3.38c-2.52.08-5.02.97-7.07,2.66l-.28-.34c-1.68,1.38-2.92,3.16-3.65,5.12-.74,1.97-.96,4.12-.61,6.26l.43-.07c.4,2.42,1.56,4.73,3.48,6.55,2.31,2.19,5.27,3.26,8.22,3.23,2.96-.04,5.9-1.19,8.14-3.43l-.11-.11c-2.21,2.22-5.11,3.35-8.03,3.39-2.91.04-5.84-1.02-8.11-3.18-1.89-1.8-3.04-4.08-3.43-6.47l.43-.07c-.33-1.96-.12-3.93.55-5.73.67-1.8,1.81-3.42,3.34-4.68l-.28-.34c2.02-1.67,4.49-2.55,6.98-2.63,2.93-.09,5.9.92,8.22,3.07l.1-.11c-2.25-2.08-5.1-3.12-7.95-3.12-.12,0-.25,0-.37,0M21.08,2.11h.05s.08.04.08.04l.08.03.08.03.08.03.08.03.08.03.08.03.08.03.08.03.08.03.08.03.08.03.08.03.08.03.08.03.08.03.08.03.08.03h.01s.06-.14.06-.14h-.01s-.08-.04-.08-.04l-.08-.03-.08-.03-.08-.03-.08-.03-.08-.03-.08-.03-.08-.03-.08-.03-.08-.03-.08-.03-.08-.03-.08-.03-.08-.03-.08-.03-.08-.03-.08-.03-.08-.03-.05-.02-.05.15ZM22.31,3.62h0s.07.04.07.04l.07.03.07.03.07.04.07.04.07.04.07.04.07.04.07.04.07.04.07.04.07.04.07.04.07.04.07.04.07.04.07.04.07.04.07.04.07.04.07.04.07.04.07.04.07.04.07.04.07.04.07.05.06.05.06.05.06.05.06.05.06.05.06.05.06.05.06.05.06.05.06.05.06.05.06.05.06.05.06.05.06.05.06.05.06.05.06.05.06.05.06.05.06.06.64-.71.04.03.1-.11-.04-.04.64-.71-.06-.06-.07-.06-.07-.06-.07-.06-.07-.06-.07-.06-.07-.06-.07-.06-.07-.06-.07-.06-.07-.06-.07-.06-.07-.06-.07-.06-.07-.06-.07-.06-.07-.06-.07-.05-.08-.05-.08-.05-.08-.05-.08-.05-.08-.05-.08-.05-.08-.05-.08-.05-.08-.05-.08-.05-.08-.05-.08-.05-.08-.05-.08-.05-.08-.05-.08-.05-.08-.05-.08-.05-.08-.05-.08-.04-.08-.04-.08-.04-.08-.04-.08-.04-.08-.04-.08-.04-.08-.04-.08-.04-.08-.04-.08-.04-.08-.04h-.02s-.87,1.87-.87,1.87ZM18.82,1.6h.08s.08.02.08.02h.08s.08.03.08.03h.08s.08.03.08.03h.08s.08.03.08.03l.08.02.08.02.08.02.08.02.08.02.08.02.08.02.08.02.08.02.08.02.08.02.04-.15-.08-.02-.08-.02-.08-.02-.08-.02-.08-.02-.08-.02-.08-.02-.08-.02-.08-.02-.08-.02-.08-.02h-.08s-.08-.03-.08-.03h-.08s-.08-.03-.08-.03h-.08s-.08-.03-.08-.03h-.08s-.08-.02-.08-.02h0s-.02.15-.02.15ZM16.88,1.31h-.16s-.08,0-.08,0h-.08s-.05,0-.05,0v.16s.05,0,.05,0h.08s.08,0,.08,0h.08s.08,0,.08,0h.16s.08,0,.08,0h.08s.08,0,.08,0h.08s.08,0,.08,0h.08s.08,0,.08,0h.08s.08,0,.08,0h.08s.08.01.08.01h.08s.04,0,.04,0v-.15s-.03,0-.03,0h-.08s-.08-.01-.08-.01h-.08s-.08-.01-.08-.01h-.08s-.08,0-.08,0h-.08s-.08,0-.08,0h-.08s-.08,0-.08,0h-.08s-.08,0-.08,0h-.08s-.08,0-.08,0ZM14.44.56h-.09s-.09.03-.09.03l-.09.02-.09.02-.09.02-.09.02-.09.02-.09.02-.09.02-.09.02-.09.02-.09.02-.09.02-.09.02-.09.02-.09.02-.09.02-.09.02-.09.02-.08.02-.09.03-.09.03-.09.03-.08.03-.08.03-.08.03-.08.03-.08.03-.08.03-.08.03-.08.03-.08.03-.08.03-.08.03-.08.03-.08.03-.08.03-.08.03-.08.03-.08.03-.08.04-.08.04-.08.04-.08.04-.08.04-.08.04-.08.04-.08.04-.08.04-.08.04h-.02s.43.86.43.86h-.03s-.07.05-.07.05l-.07.04-.07.04-.07.04-.07.04-.07.04-.07.04-.07.04-.07.04-.07.04-.07.04-.04.02.08.13.04-.02.07-.04.07-.04.07-.04.07-.04.07-.04.07-.04.07-.04.07-.04.07-.04.07-.04.07-.04.03-.02.43.85h0s.07-.04.07-.04l.07-.03.07-.03.07-.03.07-.03.07-.03.07-.03.07-.03.07-.03.07-.03.07-.03.07-.03.07-.03.07-.03.07-.03.07-.03.07-.03.07-.03.07-.03.07-.03.07-.03.07-.02.07-.02.07-.02.07-.02.07-.02.07-.02.07-.02.07-.02.07-.02.07-.02.07-.02.07-.02.07-.02.07-.02.07-.02.07-.02.07-.02.07-.02.07-.02.07-.02.08-.02h.07s.07-.03.07-.03h.08s.07-.03.07-.03h.07s.06-.02.06-.02l-.16-.94h.02s.08-.02.08-.02h.08s.08-.02.08-.02h.08s.08-.02.08-.02h.08s.08-.02.08-.02h.08s.08-.02.08-.02h.08s.08-.02.08-.02h.08s.07-.01.07-.01v-.15s-.09,0-.09,0h-.08s-.08.02-.08.02h-.08s-.08.02-.08.02h-.08s-.08.02-.08.02h-.08s-.08.02-.08.02h-.08s-.08.02-.08.02h-.08s-.08.03-.08.03h-.02s-.16-.94-.16-.94h-.06Z"/>
    </clipPath>
  </defs>
  <g class="cls-2">
    <rect class="cls-1" x="-3.57" y="-3.63" width="37.15" height="37.27" transform="translate(-6.21 14.66) rotate(-44.08)"/>
  </g>
</svg>