<?xml version="1.0" encoding="UTF-8"?>
<svg id="Layer_1" data-name="Layer 1" xmlns="http://www.w3.org/2000/svg" viewBox="0 0 30 30">
  <defs>
    <style>
      .cls-1 {
        fill: #fff;
      }
    </style>
  </defs>
  <path class="cls-1" d="M9.39.55c.23,0,.43.2.48.47,0,0,.14.83.4,1.8s.67,2.08,1.03,2.5,1.27.92,2.07,1.24c.8.31,1.49.49,1.49.49.23.06.39.3.39.58s-.16.52-.39.58c0,0-.69.17-1.49.49s-1.72.81-2.07,1.24-.76,1.53-1.03,2.5c-.26.97-.4,1.8-.4,1.8h0c-.05.27-.25.47-.48.47s-.43-.2-.48-.47c0,0-.14-.83-.4-1.8-.26-.97-.67-2.08-1.03-2.5-.35-.43-1.27-.92-2.07-1.24-.8-.31-1.49-.49-1.49-.49h0c-.23-.06-.39-.3-.39-.58s.16-.52.39-.58c0,0,.69-.17,1.49-.49.8-.31,1.72-.81,2.07-1.24s.77-1.53,1.03-2.5c.26-.97.4-1.8,.4-1.8.05-.27.25-.47.48-.47h0ZM20.61,3.5c.23,0,.43.2,.48.47,0,0,.14.83.4,1.8s.67,2.08,1.03,2.5,1.27.92,2.07,1.24c.8.31,1.49.49,1.49.49.23.06.39.3.39.58s-.16.52-.39.58c0,0-.69.17-1.49.49s-1.72.81-2.07,1.24c-.35.43-.76,1.53-1.03,2.51s-.4,1.8-.4,1.8c-.05.27-.25.47-.48.47s-.43-.2-.48-.47c0,0-.14-.83-.4-1.8-.26-.97-.67-2.08-1.03-2.51-.35-.43-1.27-.92-2.07-1.24s-1.49-.49-1.49-.49h0c-.23-.06-.39-.3-.39-.58s.16-.52.39-.58c0,0,.69-.17,1.49-.49.8-.31,1.72-.81,2.07-1.24.35-.43.77-1.53,1.03-2.5.26-.97.4-1.8,.4-1.8h0c.05-.27.25-.47.48-.47h0ZM14.51,15.3c.23,0,.43.2,.48.47,0,0,.14.83,.4,1.8.26.97.67,2.08,1.03,2.5s1.27.92,2.07,1.24c.8.31,1.49.49,1.49.49h0c.23.06.39.3.39.58s-.16.52-.39.58c0,0-.69.17-1.49.49s-1.72.81-2.07,1.24-.76,1.53-1.03,2.5c-.26.97-.4,1.8-.4,1.8h0c-.05.27-.25.47-.48.47s-.43-.2-.48-.47c0,0-.14-.83-.4-1.8-.26-.97-.67-2.08-1.03-2.5-.35-.43-1.27-.92-2.07-1.24s-1.49-.49-1.49-.49h0c-.23-.06-.39-.3-.39-.58s.16-.52.39-.58c0,0,.69-.17,1.49-.49.8-.31,1.72-.81,2.07-1.24.35-.43.77-1.53,1.03-2.5.26-.97.4-1.8,.4-1.8h0c.05-.27.25-.47,.48-.47Z"/>
</svg>