<?xml version="1.0" encoding="UTF-8"?>
<svg id="Layer_1" data-name="Layer 1" xmlns="http://www.w3.org/2000/svg" viewBox="0 0 35 30">
  <defs>
    <style>
      .cls-1 {
        fill: #fff;
      }
    </style>
  </defs>
  <path class="cls-1" d="M8.36,13.7c2.07,0,3.75-1.68,3.75-3.75s-1.68-3.75-3.75-3.75-3.75,1.68-3.75,3.75,1.68,3.75,3.75,3.75ZM8.36,7.15c1.55,0,2.81,1.26,2.81,2.81s-1.26,2.81-2.81,2.81-2.81-1.26-2.81-2.81,1.26-2.81,2.81-2.81h0ZM26.63,13.7c2.07,0,3.75-1.68,3.75-3.75s-1.68-3.75-3.75-3.75-3.75,1.68-3.75,3.75c0,2.07,1.68,3.75,3.75,3.75ZM26.63,7.15c1.55,0,2.81,1.26,2.81,2.81s-1.26,2.81-2.81,2.81-2.81-1.26-2.81-2.81c0-1.55,1.26-2.81,2.81-2.81h0ZM26.63,14.33c-1.56,0-3.08.5-4.35,1.41-1.37-.91-3.02-1.45-4.78-1.45s-3.41.53-4.78,1.45c-1.27-.91-2.79-1.41-4.35-1.41-4.12,0-7.47,3.35-7.47,7.47v.31c0,.93.76,1.69,1.69,1.69h6.34c.22.81.95,1.4,1.82,1.4h13.52c.87,0,1.6-.6,1.82-1.4h6.34c.93,0,1.69-.76,1.69-1.69v-.31c0-4.12-3.35-7.47-7.47-7.47h0ZM8.85,22.85H2.58c-.41,0-.74-.33-.74-.74v-.31c0-3.6,2.93-6.53,6.53-6.53,1.28,0,2.5.37,3.56,1.07-1.86,1.57-3.05,3.91-3.08,6.52h0ZM25.21,23.31c0,.52-.43.95-.95.95h-13.52c-.52,0-.95-.43-.95-.95v-.36c0-4.25,3.46-7.71,7.71-7.71s7.71,3.46,7.71,7.71v.37ZM33.16,22.11c0,.41-.33.74-.74.74h-6.27c-.03-2.61-1.22-4.95-3.07-6.52,1.06-.7,2.28-1.07,3.56-1.07,3.6,0,6.53,2.93,6.53,6.53v.31ZM17.5,13.4c2.37,0,4.3-1.93,4.3-4.3s-1.93-4.3-4.3-4.3-4.3,1.93-4.3,4.3,1.93,4.3,4.3,4.3ZM17.5,5.74c1.85,0,3.36,1.51,3.36,3.36s-1.51,3.36-3.36,3.36-3.36-1.51-3.36-3.36,1.51-3.36,3.36-3.36h0Z"/>
</svg>