<svg xmlns="http://www.w3.org/2000/svg" viewBox="0 0 800 620" width="800" height="620"><defs>
<linearGradient id="bg" x1="0" y1="0" x2="1" y2="1"><stop offset="0" stop-color="#0a140b"/><stop offset="1" stop-color="#04240f"/></linearGradient>
<linearGradient id="bgB" x1="0" y1="0" x2="1" y2="1"><stop offset="0" stop-color="#04240f"/><stop offset="1" stop-color="#0a140b"/></linearGradient>
<linearGradient id="acc" x1="0" y1="1" x2="1" y2="0"><stop offset="0" stop-color="#3f9d3a"/><stop offset="1" stop-color="#a6f23c"/></linearGradient>
<linearGradient id="accV" x1="0" y1="1" x2="0" y2="0"><stop offset="0" stop-color="#3f9d3a"/><stop offset="1" stop-color="#a6f23c"/></linearGradient>
<linearGradient id="area" x1="0" y1="0" x2="0" y2="1"><stop offset="0" stop-color="#a6f23c" stop-opacity="0.5"/><stop offset="1" stop-color="#a6f23c" stop-opacity="0"/></linearGradient>
<radialGradient id="node" cx="0.5" cy="0.5" r="0.5"><stop offset="0" stop-color="#c9ff6b"/><stop offset="1" stop-color="#3f9d3a"/></radialGradient>
<radialGradient id="ping" cx="0.5" cy="0.5" r="0.5"><stop offset="0" stop-color="#a6f23c"/><stop offset="1" stop-color="#a6f23c" stop-opacity="0"/></radialGradient>
<filter id="glow" x="-40%" y="-40%" width="180%" height="180%"><feGaussianBlur stdDeviation="5" result="b"/><feMerge><feMergeNode in="b"/><feMergeNode in="SourceGraphic"/></feMerge></filter>
</defs><rect width="800" height="620" rx="28" fill="url(#bgB)"/><circle cx="400" cy="320" r="130" fill="#04240f" stroke="url(#acc)" stroke-width="5" filter="url(#glow)"/><path d="M368 258 L462 320 L368 382 Z" fill="#a6f23c"/><g stroke="#a6f23c" stroke-opacity="0.5" stroke-width="6" stroke-linecap="round"><path d="M150 500 h120 M300 500 h60 M400 500 h180 M620 500 h40"/></g><g font-family="Sora, sans-serif" fill="#ffffff"><text x="80" y="82" font-size="26" font-weight="700">Video Production</text><text x="82" y="572" font-size="14" fill-opacity="0.5">script · shoot · post</text></g></svg>