<svg xmlns="http://www.w3.org/2000/svg" viewBox="0 0 800 620" width="800" height="620" role="img" aria-label="Media pitching">
  <defs>
    <linearGradient id="pitBg" x1="0" y1="0" x2="1" y2="1">
      <stop offset="0" stop-color="#0a140b"/><stop offset="1" stop-color="#04240f"/>
    </linearGradient>
    <linearGradient id="pitAc" x1="0" y1="1" x2="1" y2="0">
      <stop offset="0" stop-color="#3f9d3a"/><stop offset="1" stop-color="#a6f23c"/>
    </linearGradient>
  </defs>
  <rect width="800" height="620" rx="28" fill="url(#pitBg)"/>
  <g stroke="#ffffff" stroke-opacity="0.05">
    <line x1="90" y1="170" x2="710" y2="170"/><line x1="90" y1="290" x2="710" y2="290"/><line x1="90" y1="410" x2="710" y2="410"/>
  </g>
  <g>
    <rect x="120" y="180" width="270" height="260" rx="16" fill="#08210f" stroke="url(#pitAc)" stroke-width="4"/>
    <rect x="152" y="214" width="140" height="16" rx="8" fill="url(#pitAc)"/>
    <g fill="#ffffff" fill-opacity="0.12">
      <rect x="152" y="252" width="200" height="12" rx="6"/><rect x="152" y="278" width="170" height="12" rx="6"/>
      <rect x="152" y="322" width="200" height="12" rx="6"/><rect x="152" y="348" width="130" height="12" rx="6"/>
    </g>
    <g fill="none" stroke="url(#pitAc)" stroke-width="6" stroke-linecap="round">
      <path d="M400 240 H520"/><path d="M400 310 H520"/><path d="M400 380 H520"/>
      <path d="M502 222 L520 240 L502 258"/><path d="M502 292 L520 310 L502 328"/><path d="M502 362 L520 380 L502 398"/>
    </g>
    <g fill="#0b2c15" stroke="#a6f23c" stroke-opacity="0.5" stroke-width="3">
      <rect x="540" y="206" width="140" height="68" rx="14"/>
      <rect x="540" y="276" width="140" height="68" rx="14"/>
      <rect x="540" y="346" width="140" height="68" rx="14"/>
    </g>
    <g fill="#a6f23c" fill-opacity="0.6">
      <rect x="564" y="234" width="92" height="12" rx="6"/><rect x="564" y="304" width="66" height="12" rx="6"/><rect x="564" y="374" width="100" height="12" rx="6"/>
    </g>
  </g>
</svg>
