<svg xmlns="http://www.w3.org/2000/svg" viewBox="0 0 800 620" width="800" height="620"><defs>
<linearGradient id="bg" x1="0" y1="0" x2="1" y2="1"><stop offset="0" stop-color="#0a140b"/><stop offset="1" stop-color="#04240f"/></linearGradient>
<linearGradient id="bgB" x1="0" y1="0" x2="1" y2="1"><stop offset="0" stop-color="#04240f"/><stop offset="1" stop-color="#0a140b"/></linearGradient>
<linearGradient id="acc" x1="0" y1="1" x2="1" y2="0"><stop offset="0" stop-color="#3f9d3a"/><stop offset="1" stop-color="#a6f23c"/></linearGradient>
<linearGradient id="accV" x1="0" y1="1" x2="0" y2="0"><stop offset="0" stop-color="#3f9d3a"/><stop offset="1" stop-color="#a6f23c"/></linearGradient>
<linearGradient id="area" x1="0" y1="0" x2="0" y2="1"><stop offset="0" stop-color="#a6f23c" stop-opacity="0.5"/><stop offset="1" stop-color="#a6f23c" stop-opacity="0"/></linearGradient>
<radialGradient id="node" cx="0.5" cy="0.5" r="0.5"><stop offset="0" stop-color="#c9ff6b"/><stop offset="1" stop-color="#3f9d3a"/></radialGradient>
<radialGradient id="ping" cx="0.5" cy="0.5" r="0.5"><stop offset="0" stop-color="#a6f23c"/><stop offset="1" stop-color="#a6f23c" stop-opacity="0"/></radialGradient>
<filter id="glow" x="-40%" y="-40%" width="180%" height="180%"><feGaussianBlur stdDeviation="5" result="b"/><feMerge><feMergeNode in="b"/><feMergeNode in="SourceGraphic"/></feMerge></filter>
</defs><rect width="800" height="620" rx="28" fill="url(#bg)"/><rect x="200" y="220" width="400" height="200" rx="20" fill="#04240f" stroke="url(#acc)" stroke-width="3"/><circle cx="200" cy="320" r="24" fill="url(#bg)"/><circle cx="600" cy="320" r="24" fill="url(#bg)"/><line x1="400" y1="220" x2="400" y2="420" stroke="#a6f23c" stroke-opacity="0.5" stroke-width="3" stroke-dasharray="6 8"/><text x="300" y="335" font-family="Sora" font-size="34" font-weight="700" fill="#a6f23c" text-anchor="middle">VIP</text><circle cx="500" cy="320" r="34" fill="none" stroke="#a6f23c" stroke-width="4"/><path d="M486 320 l10 10 l20 -22" stroke="#a6f23c" stroke-width="5" fill="none" stroke-linecap="round"/><g font-family="Sora, sans-serif" fill="#ffffff"><text x="80" y="82" font-size="26" font-weight="700">Events</text><text x="82" y="572" font-size="14" fill-opacity="0.5">staging · logistics · experience</text></g></svg>