<svg xmlns="http://www.w3.org/2000/svg" viewBox="0 0 800 620" width="800" height="620"><defs>
<linearGradient id="bg" x1="0" y1="0" x2="1" y2="1"><stop offset="0" stop-color="#0a140b"/><stop offset="1" stop-color="#04240f"/></linearGradient>
<linearGradient id="bgB" x1="0" y1="0" x2="1" y2="1"><stop offset="0" stop-color="#04240f"/><stop offset="1" stop-color="#0a140b"/></linearGradient>
<linearGradient id="acc" x1="0" y1="1" x2="1" y2="0"><stop offset="0" stop-color="#3f9d3a"/><stop offset="1" stop-color="#a6f23c"/></linearGradient>
<linearGradient id="accV" x1="0" y1="1" x2="0" y2="0"><stop offset="0" stop-color="#3f9d3a"/><stop offset="1" stop-color="#a6f23c"/></linearGradient>
<linearGradient id="area" x1="0" y1="0" x2="0" y2="1"><stop offset="0" stop-color="#a6f23c" stop-opacity="0.5"/><stop offset="1" stop-color="#a6f23c" stop-opacity="0"/></linearGradient>
<radialGradient id="node" cx="0.5" cy="0.5" r="0.5"><stop offset="0" stop-color="#c9ff6b"/><stop offset="1" stop-color="#3f9d3a"/></radialGradient>
<radialGradient id="ping" cx="0.5" cy="0.5" r="0.5"><stop offset="0" stop-color="#a6f23c"/><stop offset="1" stop-color="#a6f23c" stop-opacity="0"/></radialGradient>
<filter id="glow" x="-40%" y="-40%" width="180%" height="180%"><feGaussianBlur stdDeviation="5" result="b"/><feMerge><feMergeNode in="b"/><feMergeNode in="SourceGraphic"/></feMerge></filter>
</defs><rect width="800" height="620" rx="28" fill="url(#bgB)"/><path d="M240 300 L440 240 V420 L240 360 Z" fill="url(#acc)"/><rect x="200" y="300" width="44" height="60" rx="8" fill="#3f9d3a"/><path d="M440 260 V400 L500 430 V230 Z" fill="#04240f" stroke="#a6f23c" stroke-width="3"/><path d="M520 330 m0 -30 a30 30 0 0 1 0 60" fill="none" stroke="#a6f23c" stroke-opacity="0.6" stroke-width="4"/><path d="M520 330 m0 -60 a60 60 0 0 1 0 120" fill="none" stroke="#a6f23c" stroke-opacity="0.44999999999999996" stroke-width="4"/><path d="M520 330 m0 -90 a90 90 0 0 1 0 180" fill="none" stroke="#a6f23c" stroke-opacity="0.3" stroke-width="4"/><g font-family="Sora, sans-serif" fill="#ffffff"><text x="80" y="82" font-size="26" font-weight="700">Public Relations</text><text x="82" y="572" font-size="14" fill-opacity="0.5">story · outreach · coverage</text></g></svg>