<svg xmlns="http://www.w3.org/2000/svg" viewBox="0 0 800 620" width="800" height="620" role="img" aria-label="Answer engine optimization">
  <defs>
    <linearGradient id="aeoBg" x1="0" y1="0" x2="1" y2="1">
      <stop offset="0" stop-color="#04240f"/>
      <stop offset="1" stop-color="#0a140b"/>
    </linearGradient>
    <radialGradient id="aeoNode" cx="0.5" cy="0.5" r="0.5">
      <stop offset="0" stop-color="#a6f23c"/>
      <stop offset="1" stop-color="#3f9d3a"/>
    </radialGradient>
    <filter id="aeoGlow" x="-40%" y="-40%" width="180%" height="180%">
      <feGaussianBlur stdDeviation="5" result="b"/>
      <feMerge><feMergeNode in="b"/><feMergeNode in="SourceGraphic"/></feMerge>
    </filter>
  </defs>
  <rect width="800" height="620" rx="28" fill="url(#aeoBg)"/>
  <g stroke="#a6f23c" stroke-opacity="0.35" stroke-width="2" fill="none">
    <path d="M400 310 L200 160"/><path d="M400 310 L640 170"/>
    <path d="M400 310 L180 400"/><path d="M400 310 L620 430"/>
    <path d="M400 310 L360 500"/><path d="M400 310 L520 90"/>
  </g>
  <g fill="url(#aeoNode)">
    <circle cx="200" cy="160" r="14"/><circle cx="640" cy="170" r="12"/>
    <circle cx="180" cy="400" r="12"/><circle cx="620" cy="430" r="16"/>
    <circle cx="360" cy="500" r="11"/><circle cx="520" cy="90" r="10"/>
  </g>
  <circle cx="400" cy="310" r="58" fill="#04240f" stroke="#a6f23c" stroke-width="3" filter="url(#aeoGlow)"/>
  <text x="400" y="322" font-family="Sora, sans-serif" font-size="34" font-weight="700" fill="#a6f23c" text-anchor="middle">AI</text>
  <g font-family="Sora, sans-serif" fill="#ffffff">
    <text x="80" y="80" font-size="26" font-weight="700">Answer Engines</text>
    <text x="82" y="575" font-size="14" fill-opacity="0.5">structured data &#8226; entity graph &#8226; citations</text>
  </g>
</svg>
