<svg xmlns="http://www.w3.org/2000/svg" viewBox="0 0 800 620" width="800" height="620" role="img" aria-label="Geo targeting map">
  <defs>
    <radialGradient id="geoBg" cx="0.5" cy="0.4" r="0.8">
      <stop offset="0" stop-color="#0c2a12"/>
      <stop offset="1" stop-color="#04120a"/>
    </radialGradient>
    <radialGradient id="geoPing" cx="0.5" cy="0.5" r="0.5">
      <stop offset="0" stop-color="#a6f23c"/>
      <stop offset="1" stop-color="#a6f23c" stop-opacity="0"/>
    </radialGradient>
  </defs>
  <rect width="800" height="620" rx="28" fill="url(#geoBg)"/>
  <g stroke="#a6f23c" stroke-opacity="0.10" fill="none">
    <ellipse cx="400" cy="330" rx="300" ry="120"/>
    <ellipse cx="400" cy="330" rx="220" ry="88"/>
    <ellipse cx="400" cy="330" rx="140" ry="56"/>
    <line x1="100" y1="330" x2="700" y2="330"/>
    <line x1="400" y1="200" x2="400" y2="470"/>
  </g>
  <g>
    <circle cx="300" cy="290" r="40" fill="url(#geoPing)"/>
    <circle cx="520" cy="360" r="52" fill="url(#geoPing)"/>
    <circle cx="430" cy="230" r="30" fill="url(#geoPing)"/>
  </g>
  <g fill="#a6f23c">
    <path d="M300 290 c0 -18 -14 -26 -14 -40 a14 14 0 1 1 28 0 c0 14 -14 22 -14 40 Z"/>
    <path d="M520 360 c0 -22 -17 -31 -17 -48 a17 17 0 1 1 34 0 c0 17 -17 26 -17 48 Z"/>
    <path d="M430 230 c0 -14 -11 -20 -11 -31 a11 11 0 1 1 22 0 c0 11 -11 17 -11 31 Z"/>
  </g>
  <g fill="#04120a">
    <circle cx="300" cy="253" r="5"/><circle cx="520" cy="316" r="6"/><circle cx="430" cy="202" r="4"/>
  </g>
  <g font-family="Sora, sans-serif" fill="#ffffff">
    <text x="80" y="80" font-size="26" font-weight="700">Geo Targeting</text>
    <text x="82" y="575" font-size="14" fill-opacity="0.5">local intent &#8226; radius bids &#8226; footfall</text>
  </g>
</svg>
