<svg xmlns="http://www.w3.org/2000/svg" viewBox="0 0 800 620" width="800" height="620" role="img" aria-label="Remarketing">
  <defs>
    <linearGradient id="rmkBg" x1="0" y1="0" x2="1" y2="1">
      <stop offset="0" stop-color="#0a140b"/><stop offset="1" stop-color="#04240f"/>
    </linearGradient>
    <linearGradient id="rmkAc" x1="0" y1="1" x2="1" y2="0">
      <stop offset="0" stop-color="#3f9d3a"/><stop offset="1" stop-color="#a6f23c"/>
    </linearGradient>
  </defs>
  <rect width="800" height="620" rx="28" fill="url(#rmkBg)"/>
  <g stroke="#ffffff" stroke-opacity="0.05">
    <line x1="90" y1="170" x2="710" y2="170"/><line x1="90" y1="290" x2="710" y2="290"/><line x1="90" y1="410" x2="710" y2="410"/>
  </g>
  <g fill="none" stroke="url(#rmkAc)" stroke-linecap="round" stroke-linejoin="round">
    <path d="M400 150 A160 160 0 1 1 258 232" stroke-width="14"/>
    <path d="M244 158 L252 240 L334 232" stroke-width="14"/>
  </g>
  <g fill="#a6f23c">
    <circle cx="400" cy="310" r="34" fill-opacity="0.9"/>
    <path d="M400 258 a52 52 0 0 1 0 104 a52 52 0 0 1 0 -104" fill="none" stroke="#a6f23c" stroke-opacity="0.25" stroke-width="6"/>
  </g>
  <g fill="#ffffff" fill-opacity="0.10">
    <rect x="250" y="450" width="300" height="18" rx="9"/>
    <rect x="310" y="486" width="180" height="18" rx="9"/>
  </g>
</svg>
