<svg xmlns="http://www.w3.org/2000/svg" viewBox="0 0 800 620" width="800" height="620" role="img" aria-label="Search engine marketing bids">
  <defs>
    <linearGradient id="semBg" x1="0" y1="0" x2="1" y2="1">
      <stop offset="0" stop-color="#0a140b"/>
      <stop offset="1" stop-color="#04240f"/>
    </linearGradient>
    <linearGradient id="semBar" x1="0" y1="1" x2="0" y2="0">
      <stop offset="0" stop-color="#3f9d3a"/>
      <stop offset="1" stop-color="#a6f23c"/>
    </linearGradient>
  </defs>
  <rect width="800" height="620" rx="28" fill="url(#semBg)"/>
  <g stroke="#ffffff" stroke-opacity="0.05">
    <line x1="90" y1="500" x2="720" y2="500"/>
    <line x1="90" y1="410" x2="720" y2="410"/>
    <line x1="90" y1="320" x2="720" y2="320"/>
    <line x1="90" y1="230" x2="720" y2="230"/>
  </g>
  <g fill="url(#semBar)">
    <rect x="110" y="360" width="70" height="140" rx="10"/>
    <rect x="220" y="290" width="70" height="210" rx="10"/>
    <rect x="330" y="220" width="70" height="280" rx="10"/>
    <rect x="440" y="300" width="70" height="200" rx="10"/>
    <rect x="550" y="180" width="70" height="320" rx="10"/>
    <rect x="640" y="260" width="70" height="240" rx="10"/>
  </g>
  <g font-family="Sora, sans-serif" fill="#ffffff">
    <text x="90" y="80" font-size="26" font-weight="700">Bid &amp; Conversion</text>
    <text x="92" y="565" font-size="14" fill-opacity="0.5">keywords &#8226; ROAS &#8226; quality score</text>
  </g>
  <g transform="translate(560,70)">
    <rect width="150" height="46" rx="23" fill="#a6f23c" fill-opacity="0.12" stroke="#a6f23c" stroke-opacity="0.4"/>
    <text x="75" y="30" font-family="Sora, sans-serif" font-size="18" font-weight="700" fill="#a6f23c" text-anchor="middle">4.7&#215; ROAS</text>
  </g>
</svg>
